<svg width="26" height="24" viewBox="0 0 26 24" fill="none" xmlns="http://www.w3.org/2000/svg">
<path d="M7.21616 23.1139C5.74583 22.4194 4.63046 20.7771 3.7618 19.487C1.96055 16.8086 0.872286 13.6266 0.595517 10.4121C0.211199 5.95498 2.18994 1.38701 6.88674 0.329848C7.91559 0.0983578 9.0347 0.166222 10.0658 0.511572C10.9292 0.800369 11.6926 1.13893 12.5236 1.40737C13.2832 1.65319 13.8842 1.45789 14.5874 1.17814C15.9742 0.627693 17.3566 0.0599022 18.8811 0.102882C21.2193 0.16773 23.3567 1.20001 24.7105 3.13186C24.714 3.13687 24.7164 3.14253 24.7177 3.14851C24.7189 3.15448 24.7189 3.16065 24.7177 3.16664C24.7166 3.17263 24.7142 3.17832 24.7107 3.18335C24.7073 3.18839 24.7029 3.19268 24.6977 3.19595C22.5768 4.55699 21.2622 6.84173 21.4291 9.43261C21.5841 11.8448 22.9281 13.8792 25.0587 14.9967C25.2066 15.0741 25.3543 15.1528 25.5017 15.2327C25.5233 15.2447 25.5303 15.2626 25.5228 15.2862C24.797 17.5167 23.6982 19.3565 22.3128 21.1444C21.7939 21.8147 21.1975 22.4375 20.468 22.8786C19.4459 23.4985 18.1839 23.5301 17.0941 23.1237C16.5308 22.9126 15.8336 22.5657 15.2748 22.4044C13.9561 22.0253 12.6465 22.1025 11.3459 22.6358C10.4276 23.0129 9.55289 23.4306 8.53832 23.417C8.07203 23.4105 7.63131 23.3095 7.21616 23.1139Z" fill="white"/>
</svg>
