<svg width="29" height="36" viewBox="0 0 29 36" fill="none" xmlns="http://www.w3.org/2000/svg">
<g id="Group 1000002418">
<path id="Vector" d="M7.63957 34.7963C5.95483 34.0026 4.67682 32.1257 3.68149 30.6512C1.61758 27.5903 0.370624 23.9536 0.0534969 20.28C-0.386862 15.1861 1.88042 9.96556 7.26211 8.75738C8.44099 8.49281 9.72329 8.57037 10.9048 8.96506C11.8941 9.29511 12.7687 9.68204 13.721 9.98883C14.5914 10.2698 15.2799 10.0466 16.0857 9.72685C17.6748 9.09777 19.2587 8.44887 21.0054 8.49799C23.6847 8.5721 26.1338 9.75185 27.6849 11.9597C27.6889 11.9654 27.6917 11.9719 27.6932 11.9787C27.6946 11.9855 27.6946 11.9926 27.6933 11.9994C27.6919 12.0063 27.6891 12.0128 27.6852 12.0185C27.6812 12.0243 27.6762 12.0292 27.6703 12.0329C25.2401 13.5884 23.7338 16.1995 23.9251 19.1605C24.1026 21.9173 25.6426 24.2423 28.084 25.5195C28.2534 25.6079 28.4226 25.6978 28.5915 25.7892C28.6162 25.803 28.6243 25.8234 28.6156 25.8504C27.784 28.3995 26.525 30.5021 24.9377 32.5454C24.3431 33.3115 23.6597 34.0233 22.8238 34.5274C21.6526 35.2358 20.2066 35.272 18.9579 34.8075C18.3124 34.5662 17.5136 34.1698 16.8733 33.9854C15.3624 33.5522 13.8618 33.6404 12.3715 34.2499C11.3193 34.6808 10.317 35.1582 9.15453 35.1427C8.62024 35.1353 8.11526 35.0198 7.63957 34.7963Z" fill="white"/>
<path id="Vector_2" d="M20.6554 0.0801846C20.6704 0.0686945 20.6879 0.0615132 20.708 0.0586406C20.893 0.0287663 21.0826 0.00923372 21.2768 4.16238e-05C21.2887 -0.000460876 21.3003 0.00360124 21.3094 0.0114231C21.3185 0.0192449 21.3244 0.0302548 21.3259 0.0422677C21.5913 2.56464 20.297 5.2404 18.3175 6.77261C17.186 7.64816 15.7607 8.21778 14.312 8.12471C14.2804 8.12241 14.2635 8.10546 14.2612 8.07387C14.1635 6.86051 14.3781 5.70776 14.9049 4.61562C16.0304 2.2837 17.8542 0.797743 20.3762 0.157743C20.4429 0.141082 20.511 0.126433 20.5805 0.113794C20.6086 0.108623 20.6336 0.0974198 20.6554 0.0801846Z" fill="white"/>
</g>
</svg>
