<svg width="722" height="112" viewBox="0 0 722 112" fill="none" xmlns="http://www.w3.org/2000/svg">
<path d="M469.222 14.0752H465.952C465.856 14.0752 465.777 14.1535 465.777 14.2501V95.9398C465.777 96.0364 465.856 96.1147 465.952 96.1147H469.222C469.319 96.1147 469.397 96.0364 469.397 95.9398V14.2501C469.397 14.1535 469.319 14.0752 469.222 14.0752Z" fill="white"/>
<path d="M536.353 15.2996C536.388 15.2728 536.429 15.2561 536.476 15.2494C536.908 15.1797 537.35 15.1341 537.803 15.1126C537.831 15.1115 537.858 15.121 537.879 15.1392C537.901 15.1575 537.914 15.1831 537.918 15.2112C538.537 21.0967 535.516 27.3401 530.897 30.9153C528.256 32.9582 524.93 34.2874 521.549 34.0702C521.475 34.0648 521.436 34.0253 521.43 33.9516C521.202 31.1204 521.703 28.4307 522.933 25.8823C525.559 20.4412 529.816 16.9739 535.701 15.4806C535.857 15.4417 536.016 15.4076 536.178 15.3781C536.244 15.366 536.302 15.3399 536.353 15.2996Z" fill="white"/>
<path d="M65.7201 88.0132C65.7056 88.0422 65.6834 88.0665 65.6561 88.0836C65.6287 88.1006 65.5973 88.1097 65.5652 88.1097L54.7594 88.1057C54.7463 88.106 54.7334 88.1027 54.7219 88.0964C54.7105 88.0901 54.7009 88.0808 54.6942 88.0696C54.6875 88.0584 54.6838 88.0456 54.6836 88.0325C54.6834 88.0194 54.6866 88.0066 54.693 87.9951C65.6926 67.7386 76.6862 47.4881 87.6737 27.2437C89.2867 24.2718 92.4683 21.8488 95.9375 23.4212C97.9064 24.314 99.3383 26.001 100.33 27.871C110.951 47.8983 121.566 67.9283 132.174 87.9609C132.182 87.9762 132.186 87.9932 132.185 88.0104C132.185 88.0276 132.18 88.0444 132.171 88.0591C132.162 88.0738 132.15 88.086 132.135 88.0945C132.12 88.1031 132.103 88.1076 132.086 88.1077H121.531C121.487 88.1078 121.443 88.0955 121.404 88.072C121.366 88.0486 121.335 88.0151 121.314 87.975L111.838 69.4739C111.813 69.4266 111.775 69.3871 111.73 69.3594C111.684 69.3318 111.632 69.3171 111.578 69.3171H75.5083C75.4302 69.3172 75.3537 69.3388 75.2873 69.3797C75.2209 69.4205 75.1672 69.4789 75.1322 69.5483L65.7201 88.0132ZM80.5543 59.9147C80.5466 59.9292 80.5428 59.9454 80.5433 59.9618C80.5438 59.9781 80.5485 59.9941 80.5571 60.0081C80.5656 60.0221 80.5776 60.0336 80.5919 60.0416C80.6062 60.0495 80.6224 60.0536 80.6387 60.0534L106.856 60.0575C106.872 60.0575 106.889 60.0532 106.903 60.045C106.917 60.0368 106.929 60.025 106.938 60.0107C106.946 59.9965 106.95 59.9803 106.951 59.9638C106.951 59.9473 106.947 59.9311 106.938 59.9167L93.7433 35.8357C93.7351 35.8211 93.7232 35.8089 93.7087 35.8004C93.6942 35.7919 93.6777 35.7874 93.6609 35.7874C93.6441 35.7874 93.6276 35.7919 93.6131 35.8004C93.5986 35.8089 93.5866 35.8211 93.5784 35.8357L80.5543 59.9147Z" fill="white"/>
<path d="M347.137 69.4154C347.122 69.3858 347.099 69.3609 347.071 69.3435C347.042 69.3261 347.01 69.3169 346.976 69.3169H310.736C310.69 69.3169 310.645 69.3295 310.606 69.3533C310.566 69.3771 310.535 69.4111 310.514 69.4516L301.074 87.9728C301.027 88.0626 300.954 88.1075 300.853 88.1075H290.067C290.057 88.1075 290.046 88.1048 290.037 88.0995C290.028 88.0942 290.02 88.0866 290.015 88.0774C290.01 88.0682 290.007 88.0578 290.007 88.0472C290.007 88.0366 290.01 88.0262 290.015 88.0171C300.646 68.4375 311.277 48.8532 321.91 29.2643C323.267 26.7669 324.548 24.1951 327.428 23.2038C328.615 22.795 329.791 22.8225 330.956 23.2863C333.387 24.2535 334.843 26.2743 336.024 28.5062C346.527 48.3418 357.025 68.1681 367.516 87.9849C367.523 87.9977 367.526 88.0119 367.525 88.0263C367.525 88.0406 367.521 88.0546 367.513 88.0669C367.506 88.0792 367.495 88.0893 367.483 88.0965C367.47 88.1036 367.456 88.1074 367.442 88.1075H356.823C356.752 88.1075 356.7 88.076 356.666 88.013L347.137 69.4154ZM315.888 59.9105C315.88 59.9253 315.876 59.942 315.876 59.9589C315.877 59.9758 315.882 59.9923 315.89 60.0067C315.899 60.0212 315.912 60.0331 315.926 60.0413C315.941 60.0494 315.958 60.0536 315.975 60.0532L342.182 60.0553C342.199 60.0552 342.215 60.0508 342.23 60.0425C342.244 60.0342 342.256 60.0223 342.265 60.0079C342.273 59.9935 342.278 59.9771 342.278 59.9604C342.278 59.9437 342.274 59.9272 342.266 59.9125L329.079 35.8355C329.071 35.8205 329.058 35.8081 329.043 35.7995C329.029 35.7909 329.012 35.7865 328.994 35.7867C328.977 35.7869 328.96 35.7917 328.945 35.8007C328.931 35.8096 328.919 35.8223 328.91 35.8375L315.888 59.9105Z" fill="white"/>
<path d="M429.286 69.3171H393.027C392.988 69.3171 392.95 69.328 392.916 69.3486C392.883 69.3692 392.856 69.3987 392.838 69.4338L383.388 87.967C383.367 88.0093 383.334 88.0449 383.293 88.0697C383.253 88.0946 383.206 88.1078 383.159 88.1078H372.385C372.314 88.1078 372.295 88.0763 372.329 88.0133C383.222 67.9525 394.1 47.9158 404.961 27.9033C406.045 25.9046 407.465 24.0104 409.587 23.2363C413.282 21.887 416.489 25.0279 418.048 27.9716C428.655 47.9989 439.261 68.0262 449.868 88.0535C449.871 88.0594 449.873 88.0659 449.873 88.0726C449.873 88.0792 449.871 88.0857 449.867 88.0914C449.864 88.0971 449.859 88.1018 449.853 88.105C449.847 88.1083 449.841 88.1099 449.834 88.1098L439.121 88.1078C439.092 88.1078 439.064 88.0999 439.04 88.085C439.016 88.0701 438.997 88.0487 438.984 88.0233L429.453 69.4177C429.437 69.3874 429.413 69.362 429.384 69.3442C429.354 69.3265 429.321 69.3171 429.286 69.3171ZM398.188 59.9369C398.181 59.9488 398.178 59.9623 398.178 59.9759C398.178 59.9896 398.182 60.003 398.189 60.0147C398.196 60.0265 398.205 60.0363 398.217 60.0431C398.229 60.0499 398.243 60.0535 398.256 60.0535L424.526 60.0575C424.539 60.0575 424.553 60.0539 424.565 60.0471C424.577 60.0403 424.586 60.0305 424.593 60.0188C424.6 60.007 424.604 59.9936 424.604 59.9799C424.604 59.9663 424.601 59.9528 424.594 59.9409L411.375 35.8076C411.368 35.7955 411.358 35.7854 411.346 35.7783C411.334 35.7713 411.32 35.7676 411.307 35.7676C411.293 35.7676 411.279 35.7713 411.267 35.7783C411.255 35.7854 411.245 35.7955 411.238 35.8076L398.188 59.9369Z" fill="white"/>
<path d="M151.102 74.686L162.694 53.3899C162.729 53.3256 162.728 53.2612 162.692 53.1969L146.369 23.3249C146.313 23.2216 146.344 23.17 146.462 23.17L156.777 23.166C156.836 23.1659 156.894 23.1819 156.945 23.2124C156.996 23.2428 157.038 23.2865 157.067 23.3389L184.915 74.5975C184.975 74.7088 185.036 74.7095 185.098 74.5996L213.797 23.2826C213.816 23.2486 213.844 23.2202 213.877 23.2004C213.911 23.1806 213.949 23.1701 213.988 23.17L224.478 23.168C224.488 23.1678 224.498 23.1702 224.507 23.175C224.516 23.1798 224.523 23.1869 224.528 23.1955C224.533 23.2041 224.536 23.2139 224.536 23.2239C224.536 23.234 224.533 23.2438 224.528 23.2525C213.128 43.627 201.727 63.9981 190.327 84.3659C189.295 86.2077 187.433 89.3707 184.901 89.2661C181.902 89.1395 179.583 84.3719 178.357 82.1078C175.053 76.0192 171.747 69.9319 168.44 63.8459C168.348 63.6797 168.271 63.5229 168.208 63.3754C168.199 63.3532 168.183 63.334 168.164 63.3201C168.144 63.3063 168.121 63.2982 168.096 63.297C168.072 63.2957 168.048 63.3013 168.027 63.313C168.006 63.3248 167.989 63.3422 167.977 63.3634C163.852 70.6303 159.737 77.8845 155.633 85.1259C154.504 87.1126 153.115 89.433 150.522 89.2621C148.075 89.1012 146.778 86.813 145.748 84.9269C134.538 64.3808 123.325 43.824 112.11 23.2565C112.105 23.2474 112.102 23.2372 112.103 23.2269C112.103 23.2166 112.106 23.2065 112.111 23.1977C112.116 23.1888 112.124 23.1814 112.133 23.1762C112.141 23.171 112.152 23.1682 112.162 23.168H122.594C122.62 23.1681 122.647 23.1754 122.67 23.1892C122.693 23.203 122.712 23.2228 122.724 23.2464L150.834 74.686C150.923 74.8496 151.012 74.8496 151.102 74.686Z" fill="white"/>
<path d="M40.2501 73.9219C44.9864 69.7173 45.3243 63.4819 45.3162 57.6085C45.2988 46.1444 45.2894 34.687 45.2881 23.2363C45.2881 23.1908 45.3109 23.168 45.3564 23.168L54.4971 23.174C54.5373 23.174 54.5574 23.1941 54.5574 23.2343C54.5641 35.4062 54.5675 47.5848 54.5675 59.7701C54.5675 65.0906 53.5639 70.7087 51.0158 75.3877C44.9059 86.5998 31.6867 88.0878 20.4143 88.1239C17.3908 88.1347 14.3802 88.1373 11.3822 88.132C11.3518 88.132 11.3227 88.1197 11.3012 88.0978C11.2797 88.076 11.2676 88.0463 11.2676 88.0154V78.987C11.2676 78.865 11.3286 78.804 11.4506 78.804C17.1622 78.8422 23.0468 79.0212 28.7605 78.4582C33.0523 78.0339 37.0404 76.7731 40.2501 73.9219Z" fill="white"/>
<path d="M202.383 23.2867L185.465 57.8097C185.459 57.8215 185.45 57.8314 185.439 57.8383C185.427 57.8452 185.414 57.8489 185.401 57.8489C185.388 57.8489 185.375 57.8452 185.363 57.8383C185.352 57.8314 185.343 57.8215 185.337 57.8097L168.449 23.2867C168.443 23.2756 168.441 23.2632 168.442 23.2507C168.442 23.2383 168.446 23.2262 168.453 23.2157C168.459 23.2052 168.469 23.1966 168.48 23.1907C168.491 23.1848 168.503 23.1819 168.515 23.1821H202.317C202.329 23.1819 202.341 23.1848 202.352 23.1907C202.363 23.1966 202.373 23.2052 202.379 23.2157C202.386 23.2262 202.39 23.2383 202.39 23.2507C202.391 23.2632 202.388 23.2756 202.383 23.2867Z" fill="#FFCB08"/>
<path d="M265.962 68.8348L285.238 87.9834C285.338 88.0826 285.317 88.1322 285.176 88.1322L272.423 88.1281C272.331 88.1281 272.24 88.1098 272.154 88.0742C272.069 88.0387 271.992 87.9866 271.927 87.921L253.137 68.9876C253.062 68.9129 252.961 68.871 252.855 68.871L238.528 68.873C238.502 68.873 238.477 68.8832 238.459 68.9013C238.441 68.9194 238.431 68.9439 238.431 68.9695V87.9974C238.431 88.0859 238.388 88.1301 238.3 88.1301L229.178 88.1281C229.15 88.1281 229.123 88.1171 229.104 88.0975C229.084 88.0779 229.073 88.0513 229.073 88.0236V23.2767C229.073 23.211 229.106 23.1782 229.172 23.1782C243.601 23.1541 255.048 23.152 263.514 23.1722C271.343 23.1923 278.761 27.244 282.853 33.8494C291.752 48.2163 282.735 66.7074 266.016 68.6739C265.998 68.6762 265.982 68.6834 265.968 68.6946C265.954 68.7058 265.944 68.7207 265.939 68.7374C265.933 68.7542 265.932 68.7722 265.936 68.7894C265.94 68.8066 265.949 68.8223 265.962 68.8348ZM238.469 32.6349V59.354C238.469 59.3887 238.483 59.4219 238.508 59.4464C238.532 59.4709 238.565 59.4847 238.6 59.4847H263.496C267.058 59.4847 270.474 58.0869 272.993 55.5989C275.511 53.1108 276.926 49.7363 276.926 46.2176V45.7712C276.926 42.2526 275.511 38.878 272.993 36.39C270.474 33.9019 267.058 32.5042 263.496 32.5042H238.6C238.565 32.5042 238.532 32.5179 238.508 32.5424C238.483 32.5669 238.469 32.6002 238.469 32.6349Z" fill="white"/>
<path d="M505.977 96.3039C502.046 94.452 499.063 90.0725 496.74 86.6321C491.923 79.4898 489.013 71.0044 488.273 62.4325C487.246 50.5468 492.537 38.3655 505.096 35.5464C507.848 34.9291 510.84 35.1101 513.598 36.031C515.906 36.8011 517.948 37.704 520.17 38.4198C522.201 39.0753 523.808 38.5545 525.689 37.8085C529.397 36.3407 533.094 34.8266 537.17 34.9412C543.423 35.1141 549.138 37.8669 552.759 43.0185C552.768 43.0318 552.774 43.0469 552.778 43.0628C552.781 43.0788 552.781 43.0952 552.778 43.1112C552.775 43.1272 552.768 43.1423 552.759 43.1558C552.75 43.1692 552.738 43.1806 552.724 43.1894C547.053 46.8188 543.537 52.9115 543.984 59.8205C544.398 66.2529 547.992 71.678 553.69 74.658C554.085 74.8644 554.48 75.0742 554.874 75.2873C554.932 75.3195 554.951 75.3671 554.931 75.4301C552.99 81.3779 550.052 86.2842 546.347 91.0518C544.959 92.8393 543.364 94.5002 541.414 95.6765C538.681 97.3294 535.306 97.4139 532.392 96.33C530.885 95.767 529.021 94.8421 527.527 94.4118C524.001 93.401 520.498 93.6068 517.021 95.0291C514.565 96.0345 512.226 97.1484 509.513 97.1122C508.266 97.0948 507.088 96.8254 505.977 96.3039Z" fill="white"/>
<path d="M616.055 46.3503C616.055 46.3674 616.06 46.384 616.07 46.3976C616.081 46.4113 616.095 46.4213 616.111 46.4261C616.128 46.4308 616.145 46.4301 616.161 46.4241C616.177 46.418 616.191 46.407 616.2 46.3926C617.239 44.7947 618.752 44.0386 620.739 44.1244C624.019 44.2672 625.503 47.0581 625.519 50.018C625.535 53.0114 625.539 56.0054 625.529 59.0001C625.529 59.0725 625.493 59.1087 625.421 59.1087H622.346C622.319 59.1087 622.294 59.0981 622.275 59.0792C622.256 59.0604 622.245 59.0348 622.245 59.0081C622.261 56.2159 622.275 53.4202 622.285 50.6212C622.289 49.6319 622.106 48.782 621.734 48.0716C620.829 46.3423 618.247 46.4428 616.98 47.7237C616.361 48.3511 616.052 49.0991 616.055 49.9677C616.063 52.9825 616.063 55.9974 616.055 59.0122C616.055 59.0765 616.023 59.1087 615.958 59.1087L612.849 59.1067C612.826 59.1067 612.804 59.0976 612.788 59.0813C612.772 59.0651 612.763 59.0431 612.763 59.0202V37.7885C612.763 37.7228 612.795 37.6899 612.859 37.6899H615.956C616.026 37.6899 616.061 37.7255 616.061 37.7965L616.055 46.3503Z" fill="white"/>
<path d="M700.723 45.9984L700.715 37.8046C700.715 37.7281 700.753 37.6899 700.83 37.6899H703.839C703.934 37.6899 703.981 37.7375 703.981 37.8327C703.984 44.3128 704.002 50.7874 704.036 57.2568C704.038 57.7943 704.051 58.3707 704.074 58.986C704.074 59.0022 704.072 59.0183 704.066 59.0334C704.06 59.0485 704.051 59.0623 704.04 59.0739C704.029 59.0856 704.015 59.0948 704 59.1011C703.985 59.1075 703.969 59.1107 703.953 59.1107L701.276 59.1087C701.256 59.1087 701.236 59.1008 701.221 59.0866C701.206 59.0723 701.197 59.0529 701.196 59.0323L701.073 57.0537C701.052 56.685 700.958 56.6656 700.792 56.9954C699.416 59.732 695.43 60.0437 693.149 58.5577C690.225 56.6515 689.62 52.5857 690.374 49.3645C690.664 48.1272 691.236 47.04 692.091 46.103C693.497 44.5628 695.287 43.9207 697.461 44.1767C698.487 44.296 699.346 44.6754 700.04 45.3148C700.237 45.4978 700.422 45.7974 700.627 46.0346C700.691 46.1084 700.723 46.0963 700.723 45.9984ZM693.833 54.319C695.313 58.2079 700.554 57.2869 700.697 53.1849C700.764 51.2747 701.073 48.9985 699.535 47.5447C698.115 46.2035 695.778 46.4066 694.579 47.9368C693.171 49.7304 693.085 52.3565 693.833 54.319Z" fill="white"/>
<path d="M658.086 42.0204C659.2 41.9893 660.078 41.083 660.048 39.9963C660.017 38.9095 659.09 38.0537 657.976 38.0848C656.863 38.1159 655.985 39.0221 656.015 40.1089C656.045 41.1957 656.973 42.0515 658.086 42.0204Z" fill="white"/>
<path d="M571.446 53.1847L569.668 59.0521C569.664 59.0671 569.654 59.0803 569.642 59.0897C569.629 59.0991 569.614 59.1042 569.598 59.1044L566.358 59.1084C566.346 59.1083 566.335 59.1055 566.325 59.1002C566.314 59.0949 566.305 59.0872 566.298 59.0778C566.292 59.0685 566.287 59.0576 566.285 59.0462C566.283 59.0347 566.284 59.023 566.288 59.0119L572.806 38.7735C572.81 38.7584 572.82 38.7453 572.832 38.7359C572.845 38.7265 572.86 38.7213 572.876 38.7212L576.812 38.7252C576.828 38.7254 576.843 38.7305 576.856 38.7399C576.868 38.7493 576.878 38.7624 576.882 38.7775L583.431 59.0119C583.434 59.023 583.435 59.0347 583.433 59.0462C583.431 59.0576 583.426 59.0685 583.42 59.0778C583.413 59.0872 583.404 59.0949 583.393 59.1002C583.383 59.1055 583.372 59.1083 583.36 59.1084L580.034 59.1064C580.018 59.1063 580.003 59.1011 579.99 59.0917C579.977 59.0823 579.968 59.0692 579.963 59.0541L578.093 53.1827C578.088 53.1676 578.079 53.1545 578.066 53.1451C578.054 53.1357 578.038 53.1305 578.023 53.1304L571.517 53.1324C571.501 53.1325 571.485 53.1377 571.473 53.1471C571.46 53.1565 571.451 53.1696 571.446 53.1847ZM574.64 41.681C573.92 44.6851 573.021 47.5807 572.062 50.5184C572.058 50.5288 572.058 50.5398 572.06 50.5505C572.061 50.5612 572.066 50.5714 572.072 50.5801C572.079 50.5889 572.087 50.596 572.097 50.601C572.106 50.606 572.117 50.6087 572.128 50.6089L577.351 50.6049C577.451 50.6049 577.486 50.5573 577.455 50.4621C576.494 47.5766 575.515 44.665 574.819 41.6831C574.76 41.431 574.7 41.4304 574.64 41.681Z" fill="white"/>
<path d="M606.332 46.9395C606.345 49.4208 606.349 51.9048 606.345 54.3914C606.345 54.5282 606.4 54.8271 606.509 55.2882C606.898 56.9109 608.309 56.8124 609.605 56.5731C609.616 56.5711 609.627 56.5715 609.638 56.5742C609.649 56.577 609.659 56.5821 609.668 56.5891C609.677 56.5962 609.684 56.6051 609.689 56.6151C609.694 56.6252 609.697 56.6363 609.697 56.6475L609.804 58.8795C609.806 58.9315 609.791 58.9827 609.761 59.0247C609.73 59.0667 609.687 59.0971 609.637 59.1107C607.33 59.73 604.396 59.6114 603.489 56.9592C603.273 56.3278 603.162 55.5221 603.155 54.5422C603.137 52.0113 603.13 49.4845 603.133 46.9616C603.133 46.949 603.131 46.9365 603.126 46.9248C603.121 46.9132 603.114 46.9025 603.105 46.8935C603.096 46.8845 603.085 46.8774 603.074 46.8725C603.062 46.8676 603.049 46.8651 603.036 46.8651L601.105 46.8812C601.038 46.8825 601.005 46.8497 601.005 46.7827L601.003 44.5024C601.003 44.4314 601.039 44.3959 601.112 44.3959L603.03 44.4059C603.104 44.4059 603.141 44.3684 603.141 44.2933L603.127 41.8744C603.126 41.8331 603.139 41.7929 603.164 41.7599C603.188 41.7269 603.222 41.7028 603.261 41.6914L606.22 40.7845C606.307 40.7577 606.351 40.7899 606.351 40.881L606.338 44.3315C606.338 44.3407 606.34 44.3498 606.343 44.3583C606.347 44.3668 606.352 44.3746 606.358 44.3812C606.365 44.3877 606.373 44.3929 606.382 44.3965C606.39 44.4001 606.399 44.4019 606.409 44.4019L609.866 44.3979C609.888 44.3974 609.909 44.4058 609.925 44.4212C609.941 44.4367 609.95 44.4579 609.95 44.4803L609.953 46.7505C609.953 46.8363 609.91 46.8785 609.824 46.8772L606.405 46.8671C606.386 46.8671 606.367 46.8747 606.354 46.8883C606.34 46.9019 606.332 46.9203 606.332 46.9395Z" fill="white"/>
<path d="M678.092 52.6398C678.296 57.4255 683.239 57.4214 686.553 56.2291C686.63 56.2009 686.677 56.227 686.694 56.3075L687.163 58.3665C687.181 58.4483 687.151 58.5039 687.072 58.5334C684.182 59.6192 680.049 59.9651 677.449 57.8618C672.831 54.1278 674.712 44.5324 681.27 44.086C686.33 43.7442 688.574 48.0452 687.891 52.479C687.888 52.4984 687.878 52.5161 687.863 52.529C687.848 52.5419 687.828 52.5491 687.808 52.5493H678.179C678.167 52.5493 678.156 52.5517 678.145 52.5563C678.134 52.5609 678.124 52.5676 678.116 52.5761C678.108 52.5845 678.102 52.5945 678.098 52.6055C678.094 52.6165 678.092 52.6281 678.092 52.6398ZM684.88 50.1565C684.956 47.9226 683.438 45.9098 680.986 46.4205C679.285 46.7724 678.259 48.4956 678.108 50.1605C678.108 50.1668 678.108 50.1732 678.11 50.1793C678.112 50.1853 678.115 50.1909 678.12 50.1957C678.124 50.2005 678.129 50.2043 678.135 50.2069C678.142 50.2095 678.148 50.2108 678.155 50.2108L684.822 50.2128C684.837 50.2128 684.851 50.207 684.862 50.1965C684.873 50.186 684.879 50.1716 684.88 50.1565Z" fill="white"/>
<path d="M632.328 58.7006C630.242 57.6369 628.953 55.4009 628.675 53.1348C628.056 48.0596 631.181 43.6057 636.67 44.1325C639.899 44.4422 642.174 46.5254 642.808 49.7728C643.566 53.6515 642.035 57.8782 638.039 59.1229C636.366 59.6436 634.029 59.5672 632.328 58.7006ZM635.725 57.0637C636.234 57.0673 636.738 56.9333 637.21 56.6694C637.681 56.4055 638.111 56.0168 638.474 55.5257C638.837 55.0345 639.126 54.4504 639.325 53.8068C639.524 53.1631 639.629 52.4725 639.634 51.7744C639.644 50.3644 639.245 49.0093 638.526 48.0072C637.807 47.0051 636.826 46.4382 635.8 46.431C635.291 46.4274 634.787 46.5614 634.315 46.8253C633.844 47.0892 633.414 47.4778 633.051 47.969C632.688 48.4602 632.399 49.0442 632.2 49.6879C632.001 50.3315 631.896 51.0222 631.891 51.7203C631.881 53.1303 632.28 54.4854 632.999 55.4875C633.718 56.4895 634.699 57.0565 635.725 57.0637Z" fill="white"/>
<path d="M648.946 47.1042C648.954 47.3268 649 47.3355 649.085 47.1304C649.943 45.0613 651.448 43.893 653.752 44.1544C653.831 44.1625 653.871 44.206 653.871 44.2851V47.2007C653.871 47.2678 653.837 47.2966 653.768 47.2872C652.294 47.0781 650.943 47.3073 650.11 48.5781C649.334 49.7645 649.364 50.9086 649.356 52.6077C649.345 54.7418 649.347 56.8692 649.36 58.9899C649.36 59.0208 649.348 59.0505 649.326 59.0724C649.304 59.0942 649.274 59.1065 649.243 59.1065H646.221C646.131 59.1065 646.086 59.0623 646.086 58.9738C646.114 54.1198 646.217 49.2839 646.02 44.4721C646.019 44.463 646.021 44.4539 646.024 44.4453C646.027 44.4368 646.032 44.429 646.038 44.4225C646.044 44.4159 646.052 44.4107 646.06 44.4071C646.068 44.4036 646.077 44.4017 646.086 44.4018L648.751 44.3997C648.818 44.3997 648.852 44.4333 648.853 44.5003L648.946 47.1042Z" fill="white"/>
<path d="M668.451 53.3819C667.414 52.8551 666.348 52.5253 665.34 51.9361C663.202 50.6834 662.482 48.2303 663.918 46.1773C665.698 43.6337 669.626 43.69 672.116 44.9286C672.184 44.9621 672.207 45.0157 672.186 45.0895L671.53 47.245C671.513 47.3053 671.477 47.3194 671.424 47.2872C670.189 46.5533 667.094 45.745 666.432 47.6733C666.07 48.729 666.762 49.4689 667.753 49.9173C669.187 50.5668 670.78 51.0132 671.832 52.3122C673.32 54.15 672.992 56.9389 670.997 58.3364C668.91 59.8003 665.042 59.742 662.898 58.4591C662.833 58.4189 662.811 58.3619 662.832 58.2882L663.46 56.1005C663.48 56.0281 663.523 56.0093 663.588 56.0442C664.076 56.3029 664.575 56.518 665.085 56.6896C666.311 57.1018 669.008 57.3693 669.511 55.8391C669.833 54.8538 669.382 53.8564 668.451 53.3819Z" fill="white"/>
<path d="M595.533 56.9615C595.526 56.8529 595.492 56.8442 595.43 56.9354C594.189 58.8014 592.436 59.6204 590.173 59.3925C586.947 59.0668 585.783 56.2598 585.777 53.3864C585.77 50.4654 585.768 47.5176 585.771 44.543C585.771 44.4518 585.816 44.4062 585.907 44.4062L588.908 44.4243C588.943 44.4249 588.976 44.4389 589.001 44.4633C589.025 44.4878 589.039 44.5207 589.039 44.555C589.041 47.3996 589.054 50.2422 589.077 53.0827C589.093 54.9668 589.904 56.8248 592.037 56.7604C594.33 56.6921 595.183 54.8401 595.181 52.8254C595.177 50.2288 595.177 47.4834 595.181 44.5892C595.181 44.4672 595.242 44.4062 595.364 44.4062L598.312 44.4203C598.395 44.4203 598.437 44.4619 598.437 44.545C598.431 49.3548 598.26 54.2289 598.574 58.9984C598.575 59.0126 598.573 59.0268 598.568 59.0401C598.564 59.0535 598.556 59.0658 598.547 59.0762C598.537 59.0866 598.525 59.0949 598.512 59.1005C598.499 59.1062 598.485 59.1091 598.471 59.109L595.806 59.105C595.712 59.105 595.663 59.0587 595.657 58.9663L595.533 56.9615Z" fill="white"/>
<path d="M659.586 44.4004H656.465C656.421 44.4004 656.385 44.4364 656.385 44.4808V59.0267C656.385 59.0712 656.421 59.1072 656.465 59.1072H659.586C659.631 59.1072 659.667 59.0712 659.667 59.0267V44.4808C659.667 44.4364 659.631 44.4004 659.586 44.4004Z" fill="white"/>
<path d="M629.68 72.4004H626.587C626.535 72.4004 626.492 72.4427 626.492 72.4949V93.7206C626.492 93.7728 626.535 93.8151 626.587 93.8151H629.68C629.732 93.8151 629.774 93.7728 629.774 93.7206V72.4949C629.774 72.4427 629.732 72.4004 629.68 72.4004Z" fill="white"/>
<path d="M637.068 72.396H633.915C633.878 72.396 633.849 72.4257 633.849 72.4623V93.7484C633.849 93.785 633.878 93.8147 633.915 93.8147H637.068C637.105 93.8147 637.135 93.785 637.135 93.7484V72.4623C637.135 72.4257 637.105 72.396 637.068 72.396Z" fill="white"/>
<path d="M577.139 84.1392C578.455 84.8322 579.312 85.9267 579.709 87.4228C580.138 89.0434 580.564 90.6661 580.986 92.2908C581.113 92.7788 581.276 93.2574 581.475 93.7265C581.479 93.7366 581.481 93.7475 581.48 93.7584C581.479 93.7693 581.475 93.7798 581.469 93.7889C581.463 93.7981 581.455 93.8056 581.446 93.8109C581.436 93.8161 581.425 93.8189 581.414 93.819L578.235 93.813C578.157 93.813 578.101 93.7781 578.068 93.7084C577.935 93.4283 577.827 93.1414 577.744 92.8478C577.33 91.3679 576.956 89.8786 576.624 88.3799C575.894 85.0862 573.915 85.2712 571.131 85.2893C571.054 85.2907 571.015 85.3302 571.015 85.408L571.017 93.7044C571.017 93.7781 570.98 93.815 570.906 93.815H567.857C567.793 93.815 567.761 93.7828 567.761 93.7185L567.763 73.842C567.763 73.775 567.796 73.7354 567.861 73.7234C571.799 73.0277 580.355 72.2756 580.773 78.3984C580.847 79.4641 580.68 80.43 580.272 81.2959C579.731 82.4461 578.464 83.7189 577.153 84.0225C577.14 84.0254 577.129 84.032 577.12 84.0416C577.112 84.0511 577.106 84.0631 577.105 84.0759C577.103 84.0887 577.105 84.1016 577.112 84.1129C577.118 84.1243 577.127 84.1334 577.139 84.1392ZM576.334 81.8911C577.485 80.9923 577.766 79.3777 577.354 78.0687C576.535 75.4707 573.245 75.6457 571.152 75.9513C571.114 75.9562 571.08 75.9746 571.055 76.003C571.031 76.0315 571.017 76.0681 571.017 76.1061V82.792C571.017 82.8106 571.024 82.8285 571.037 82.8417C571.051 82.8549 571.068 82.8623 571.087 82.8623C572.955 82.8221 574.747 83.1318 576.334 81.8911Z" fill="white"/>
<path d="M586.455 87.3621C586.55 92.1356 591.596 92.1195 594.862 90.9734C594.883 90.9661 594.905 90.9632 594.927 90.965C594.948 90.9668 594.97 90.9732 594.989 90.9839C595.008 90.9945 595.025 91.0091 595.038 91.0268C595.051 91.0444 595.06 91.0646 595.065 91.086L595.491 93.0083C595.505 93.07 595.496 93.1347 595.465 93.19C595.434 93.2452 595.384 93.2872 595.324 93.3079C590.142 95.1035 583.803 94.1504 583.322 87.4706C582.994 82.9002 585.651 78.4443 590.755 78.8143C595.123 79.13 596.785 83.252 596.27 87.0806C596.252 87.2092 596.179 87.2736 596.049 87.2736L586.546 87.2696C586.484 87.2696 586.454 87.3004 586.455 87.3621ZM590.421 81.1166C588.07 80.7889 586.747 82.8298 586.435 84.8687C586.427 84.9223 586.45 84.9491 586.504 84.9491H593.124C593.177 84.9491 593.204 84.923 593.207 84.8707C593.295 83.0188 592.368 81.3881 590.421 81.1166Z" fill="white"/>
<path d="M606.001 93.3557C603.98 94.5039 600.38 94.3812 598.343 93.1828C598.277 93.1453 598.255 93.0896 598.276 93.0159L598.892 90.8382C598.912 90.7672 598.955 90.7477 599.021 90.7799C599.417 90.9689 599.809 91.1392 600.195 91.2907C601.492 91.7994 604.865 92.3463 605.046 90.044C605.134 88.924 604.378 88.3047 603.391 87.8804C602.015 87.2892 600.491 86.7865 599.475 85.576C597.951 83.7563 598.6 80.9935 600.537 79.7368C602.522 78.4458 605.394 78.6429 607.496 79.6141C607.608 79.6664 607.646 79.7515 607.61 79.8695L606.985 81.9386C606.963 82.0069 606.92 82.025 606.856 81.9928C605.555 81.3273 602.645 80.4727 601.905 82.3005C601.207 84.0277 603.347 84.7838 604.599 85.2603C605.509 85.6062 606.387 86.0908 607.051 86.7865C608.964 88.7953 608.431 91.9763 606.001 93.3557Z" fill="white"/>
<path d="M613.576 87.3461C613.555 88.8354 614.087 89.9776 615.17 90.7725C616.98 92.1016 620.092 91.6411 622.012 90.9675C622.083 90.9434 622.127 90.9675 622.143 91.0399L622.602 93.0567C622.619 93.1305 622.594 93.1847 622.527 93.2196C622.243 93.3684 621.949 93.4864 621.646 93.5735C617.938 94.6231 613.427 94.4321 611.347 90.7403C609.453 87.3763 610.309 82.102 613.624 79.8661C615.796 78.4002 619.309 78.366 621.316 80.2039C623.149 81.8829 623.724 84.7543 623.338 87.1571C623.326 87.2335 623.281 87.2717 623.205 87.2717H613.65C613.602 87.2717 613.577 87.2965 613.576 87.3461ZM618.183 81.2676C615.613 80.5135 613.789 82.4419 613.565 84.8548C613.56 84.9178 613.588 84.9493 613.65 84.9493H620.238C620.296 84.9493 620.326 84.9205 620.327 84.8628C620.369 83.4251 619.701 81.714 618.183 81.2676Z" fill="white"/>
<path d="M643.447 87.3782C643.382 89.9861 645.446 91.6812 648.036 91.6109C649.485 91.5706 650.775 91.3562 651.903 90.9674C651.962 90.9473 651.999 90.9674 652.012 91.0277L652.481 93.0747C652.498 93.1484 652.473 93.2014 652.404 93.2335C652.147 93.3569 651.847 93.4668 651.505 93.5633C649.092 94.243 646.176 94.4159 643.968 93.3542C640.579 91.7235 639.744 87.7582 640.514 84.366C641.341 80.7346 644.33 78.39 648.135 78.8646C652.284 79.3813 653.764 83.5477 653.225 87.1731C653.214 87.2388 653.175 87.2716 653.108 87.2716L643.557 87.2696C643.485 87.2696 643.448 87.3058 643.447 87.3782ZM643.585 84.9612L650.214 84.9371C650.23 84.9371 650.245 84.9307 650.257 84.9194C650.268 84.9081 650.274 84.8928 650.274 84.8768V84.8044C650.271 83.8138 649.913 82.865 649.278 82.1666C648.644 81.4683 647.785 81.0776 646.892 81.0804H646.884C646.441 81.0818 646.003 81.1799 645.594 81.369C645.186 81.5582 644.815 81.8347 644.503 82.1827C644.191 82.5308 643.945 82.9436 643.777 83.3976C643.609 83.8515 643.523 84.3378 643.525 84.8285V84.9009C643.525 84.9169 643.531 84.9323 643.543 84.9436C643.554 84.9549 643.569 84.9612 643.585 84.9612Z" fill="white"/>
<path d="M659.354 81.8708C659.551 81.4706 659.734 81.0323 659.948 80.7146C660.812 79.4136 662.421 78.5651 664.04 78.8948C664.071 78.9013 664.098 78.9176 664.117 78.941C664.136 78.9644 664.147 78.9936 664.147 79.0235L664.145 81.9371C664.145 82.0028 664.112 82.0296 664.046 82.0176C661.08 81.4606 659.646 83.5377 659.634 86.212C659.62 88.7161 659.62 91.2202 659.634 93.7243C659.634 93.7846 659.604 93.8148 659.545 93.8148H656.452C656.388 93.8148 656.356 93.7826 656.358 93.7182C656.392 87.9976 656.49 83.6061 656.289 79.2447C656.285 79.171 656.321 79.1341 656.396 79.1341L659.047 79.1281C659.071 79.1281 659.094 79.1373 659.111 79.1539C659.129 79.1704 659.139 79.1929 659.139 79.2166L659.22 81.8426C659.22 81.8587 659.225 81.8743 659.235 81.8868C659.246 81.8993 659.26 81.9079 659.276 81.9112C659.291 81.9145 659.308 81.9122 659.322 81.9049C659.336 81.8975 659.348 81.8855 659.354 81.8708Z" fill="white"/>
</svg>
