<svg width="86" height="84" viewBox="0 0 86 84" fill="none" xmlns="http://www.w3.org/2000/svg">
<g filter="url(#filter0_b_880_6861)">
<path d="M42.9844 82C64.8808 82 83 63.8808 83 42.0152C83 20.119 64.8503 2 42.9539 2C21.0882 2 3 20.119 3 42.0152C3 63.8808 21.119 82 42.9844 82Z" fill="white" fill-opacity="0.16"/>
</g>
<path d="M43.3148 58.0939C47.1396 58.0939 50.4274 52.1369 51.2901 50.7209C52.3318 49.0119 51.8434 47.3029 51.8434 46.2449C51.8434 45.3986 54.0733 43.9174 54.0733 42.0621C54.0733 40.1414 49.7601 38.8394 49.7601 37.7001C49.7601 37.0164 50.2973 36.3491 50.8831 36.3491C51.8434 36.3491 54.0569 39.2788 55.3591 39.2788C56.1891 39.2788 56.1891 38.5464 56.6774 38.5464C57.7679 38.5464 58.0121 44.4871 61.1208 45.9519C61.9019 44.9918 62.3741 43.7548 62.3741 42.2248C62.3741 31.4175 53.4548 21.9937 42.1918 22.0588C36.3812 22.075 33.9235 24.1258 33.9235 26.3882C33.9235 29.2039 31.6449 29.855 31.6449 31.4989C31.6449 32.4917 32.3447 33.1753 33.419 33.1753C35.8441 33.1753 35.779 30.5549 37.1462 30.5549C38.1228 30.5711 38.9691 31.9058 40.3526 31.9058C41.0361 31.9058 41.3616 31.4989 41.4104 30.9455C41.5081 30.6362 41.6058 30.4735 41.8824 30.4735C43.2659 30.4735 44.8448 32.0197 44.8448 32.9637C44.8448 33.8589 44.5193 34.6076 43.9169 34.6076C42.9404 34.6076 40.5966 33.4194 38.5133 33.4194C33.8259 33.4194 29.9359 36.8049 29.9359 40.7436C29.9359 44.1779 31.9704 46.1636 35.486 46.1636C37.6996 46.1636 39.3271 47.6609 39.3271 49.6954C39.3271 52.8204 38.9853 58.0939 43.3148 58.0939ZM48.5394 29.562C47.8069 29.562 47.4814 29.9364 46.8304 29.9364C46.1794 29.9364 45.7074 29.4969 45.7074 28.8459C45.7074 27.853 46.6839 27.2996 48.3929 27.2996C49.8414 27.2996 50.9158 28.0483 50.9158 29.0086C50.9158 29.562 50.5739 29.9852 50.1181 29.9852C49.3694 29.9852 48.9788 29.562 48.5394 29.562ZM42.2079 63.4163C53.8128 63.4163 63.4158 53.8133 63.4158 42.2248C63.4158 30.62 53.7966 21.0171 42.1918 21.0171C30.6032 21.0171 21.0166 30.62 21.0166 42.2248C21.0166 53.8133 30.6195 63.4163 42.2079 63.4163ZM42.2079 60.9423C31.9704 60.9423 23.4906 52.4624 23.4906 42.2248C23.4906 31.9709 31.9541 23.4911 42.1918 23.4911C52.4456 23.4911 60.9418 31.9709 60.9418 42.2248C60.9418 52.4624 52.4619 60.9423 42.2079 60.9423Z" fill="white"/>
<defs>
<filter id="filter0_b_880_6861" x="-21" y="-22" width="128" height="128" filterUnits="userSpaceOnUse" color-interpolation-filters="sRGB">
<feFlood flood-opacity="0" result="BackgroundImageFix"/>
<feGaussianBlur in="BackgroundImageFix" stdDeviation="12"/>
<feComposite in2="SourceAlpha" operator="in" result="effect1_backgroundBlur_880_6861"/>
<feBlend mode="normal" in="SourceGraphic" in2="effect1_backgroundBlur_880_6861" result="shape"/>
</filter>
</defs>
</svg>
