<svg width="439" height="68" viewBox="0 0 439 68" fill="none" xmlns="http://www.w3.org/2000/svg">
<path d="M54.7201 66.0132C54.7056 66.0422 54.6834 66.0665 54.6561 66.0836C54.6287 66.1006 54.5973 66.1097 54.5652 66.1097L43.7594 66.1057C43.7463 66.106 43.7334 66.1027 43.7219 66.0964C43.7105 66.0901 43.7009 66.0808 43.6942 66.0696C43.6875 66.0584 43.6838 66.0456 43.6836 66.0325C43.6834 66.0194 43.6866 66.0066 43.693 65.9951C54.6926 45.7386 65.6862 25.4881 76.6737 5.24368C78.2867 2.27176 81.4683 -0.15122 84.9375 1.4212C86.9064 2.31399 88.3383 4.00102 89.3298 5.87104C99.9513 25.8983 110.566 45.9283 121.174 65.9609C121.182 65.9762 121.186 65.9932 121.185 66.0104C121.185 66.0276 121.18 66.0444 121.171 66.0591C121.162 66.0738 121.15 66.086 121.135 66.0945C121.12 66.103 121.103 66.1076 121.086 66.1077H110.531C110.487 66.1078 110.443 66.0955 110.404 66.072C110.366 66.0486 110.335 66.0151 110.314 65.975L100.838 47.4739C100.813 47.4266 100.775 47.3871 100.73 47.3594C100.684 47.3318 100.632 47.3171 100.578 47.3171H64.5083C64.4302 47.3172 64.3537 47.3388 64.2873 47.3797C64.2209 47.4205 64.1672 47.4789 64.1322 47.5483L54.7201 66.0132ZM69.5543 37.9147C69.5466 37.9292 69.5428 37.9454 69.5433 37.9618C69.5438 37.9781 69.5485 37.9941 69.5571 38.0081C69.5656 38.0221 69.5776 38.0336 69.5919 38.0416C69.6062 38.0495 69.6224 38.0536 69.6387 38.0534L95.856 38.0575C95.8725 38.0575 95.8887 38.0532 95.903 38.045C95.9173 38.0368 95.9292 38.025 95.9376 38.0107C95.9459 37.9965 95.9504 37.9803 95.9505 37.9638C95.9507 37.9473 95.9465 37.9311 95.9384 37.9167L82.7433 13.8357C82.7351 13.8211 82.7232 13.8089 82.7087 13.8004C82.6942 13.7919 82.6777 13.7874 82.6609 13.7874C82.6441 13.7874 82.6276 13.7919 82.6131 13.8004C82.5986 13.8089 82.5866 13.8211 82.5784 13.8357L69.5543 37.9147Z" fill="white"/>
<path d="M336.137 47.4154C336.122 47.3858 336.099 47.3609 336.071 47.3435C336.042 47.3261 336.01 47.3169 335.976 47.3169H299.736C299.69 47.3169 299.645 47.3295 299.606 47.3533C299.566 47.3771 299.535 47.4111 299.514 47.4516L290.074 65.9728C290.027 66.0626 289.954 66.1075 289.853 66.1075H279.067C279.057 66.1075 279.046 66.1048 279.037 66.0995C279.028 66.0942 279.02 66.0866 279.015 66.0774C279.01 66.0682 279.007 66.0578 279.007 66.0472C279.007 66.0366 279.01 66.0262 279.015 66.0171C289.646 46.4375 300.277 26.8532 310.91 7.2643C312.267 4.76692 313.548 2.19515 316.428 1.20383C317.615 0.794978 318.791 0.822457 319.956 1.28628C322.387 2.25346 323.843 4.27428 325.024 6.50624C335.527 26.3418 346.025 46.1681 356.516 65.9849C356.523 65.9977 356.526 66.0119 356.525 66.0263C356.525 66.0406 356.521 66.0546 356.513 66.0669C356.506 66.0792 356.495 66.0893 356.483 66.0965C356.47 66.1036 356.456 66.1074 356.442 66.1075H345.823C345.752 66.1075 345.7 66.076 345.666 66.013L336.137 47.4154ZM304.888 37.9105C304.88 37.9253 304.876 37.942 304.876 37.9589C304.877 37.9758 304.882 37.9923 304.89 38.0067C304.899 38.0212 304.912 38.0331 304.926 38.0413C304.941 38.0494 304.958 38.0536 304.975 38.0532L331.182 38.0553C331.199 38.0552 331.215 38.0508 331.23 38.0425C331.244 38.0342 331.256 38.0223 331.265 38.0079C331.273 37.9935 331.278 37.9771 331.278 37.9604C331.278 37.9437 331.274 37.9272 331.266 37.9125L318.079 13.8355C318.071 13.8205 318.058 13.8081 318.043 13.7995C318.029 13.7909 318.012 13.7865 317.994 13.7867C317.977 13.7869 317.96 13.7917 317.945 13.8007C317.931 13.8096 317.919 13.8223 317.91 13.8375L304.888 37.9105Z" fill="white"/>
<path d="M418.286 47.3171H382.027C381.988 47.3171 381.95 47.328 381.916 47.3486C381.883 47.3692 381.856 47.3987 381.838 47.4338L372.388 65.967C372.367 66.0093 372.334 66.0449 372.293 66.0697C372.253 66.0946 372.206 66.1078 372.159 66.1078H361.385C361.314 66.1078 361.295 66.0763 361.329 66.0133C372.222 45.9525 383.1 25.9158 393.961 5.90327C395.045 3.90456 396.465 2.01041 398.587 1.23627C402.282 -0.112963 405.489 3.02786 407.048 5.97163C417.655 25.9989 428.261 46.0262 438.868 66.0535C438.871 66.0594 438.873 66.0659 438.873 66.0726C438.873 66.0792 438.871 66.0857 438.867 66.0914C438.864 66.0971 438.859 66.1018 438.853 66.105C438.847 66.1083 438.841 66.1099 438.834 66.1098L428.121 66.1078C428.092 66.1078 428.064 66.0999 428.04 66.085C428.016 66.0701 427.997 66.0487 427.984 66.0233L418.453 47.4177C418.437 47.3874 418.413 47.362 418.384 47.3442C418.354 47.3265 418.321 47.3171 418.286 47.3171ZM387.188 37.9369C387.181 37.9488 387.178 37.9623 387.178 37.9759C387.178 37.9896 387.182 38.003 387.189 38.0147C387.196 38.0265 387.205 38.0363 387.217 38.0431C387.229 38.0499 387.243 38.0535 387.256 38.0535L413.526 38.0575C413.539 38.0575 413.553 38.0539 413.565 38.0471C413.577 38.0403 413.586 38.0305 413.593 38.0188C413.6 38.007 413.604 37.9936 413.604 37.9799C413.604 37.9663 413.601 37.9528 413.594 37.9409L400.375 13.8076C400.368 13.7955 400.358 13.7854 400.346 13.7783C400.334 13.7713 400.32 13.7676 400.307 13.7676C400.293 13.7676 400.279 13.7713 400.267 13.7783C400.255 13.7854 400.245 13.7955 400.238 13.8076L387.188 37.9369Z" fill="white"/>
<path d="M140.102 52.686L151.694 31.3899C151.729 31.3256 151.728 31.2612 151.692 31.1969L135.369 1.32487C135.313 1.22165 135.344 1.17004 135.462 1.17004L145.777 1.16602C145.836 1.16592 145.894 1.18194 145.945 1.21238C145.996 1.24281 146.038 1.28654 146.067 1.33894L173.915 52.5975C173.975 52.7088 174.036 52.7095 174.098 52.5996L202.797 1.28264C202.816 1.24858 202.844 1.22019 202.877 1.2004C202.911 1.18061 202.949 1.17013 202.988 1.17004L213.478 1.16803C213.488 1.16776 213.498 1.17016 213.507 1.17499C213.516 1.17982 213.523 1.18691 213.528 1.19551C213.533 1.20412 213.536 1.21393 213.536 1.22395C213.536 1.23396 213.533 1.24381 213.528 1.25248C202.128 21.627 190.727 41.9981 179.327 62.3659C178.295 64.2077 176.433 67.3707 173.901 67.2661C170.902 67.1394 168.583 62.3719 167.357 60.1078C164.053 54.0192 160.747 47.9319 157.44 41.8459C157.348 41.6797 157.271 41.5229 157.208 41.3754C157.199 41.3532 157.183 41.334 157.164 41.3201C157.144 41.3063 157.121 41.2982 157.096 41.297C157.072 41.2957 157.048 41.3013 157.027 41.313C157.006 41.3248 156.989 41.3422 156.977 41.3634C152.852 48.6303 148.737 55.8845 144.633 63.1259C143.504 65.1126 142.115 67.433 139.522 67.2621C137.075 67.1012 135.778 64.813 134.748 62.9269C123.538 42.3808 112.325 21.824 101.11 1.2565C101.105 1.24739 101.102 1.23719 101.103 1.22689C101.103 1.21659 101.106 1.20652 101.111 1.19765C101.116 1.18878 101.124 1.1814 101.133 1.17621C101.141 1.17103 101.152 1.16821 101.162 1.16803H111.594C111.62 1.1681 111.647 1.17543 111.67 1.18923C111.693 1.20304 111.712 1.22281 111.724 1.24645L139.834 52.686C139.923 52.8496 140.012 52.8496 140.102 52.686Z" fill="white"/>
<path d="M29.2501 51.9219C33.9864 47.7173 34.3243 41.4819 34.3162 35.6085C34.2988 24.1444 34.2894 12.687 34.2881 1.23633C34.2881 1.19076 34.3109 1.16797 34.3564 1.16797L43.4971 1.174C43.5373 1.174 43.5574 1.19411 43.5574 1.23432C43.5641 13.4062 43.5675 25.5848 43.5675 37.77C43.5675 43.0906 42.5639 48.7087 40.0158 53.3877C33.9059 64.5998 20.6867 66.0878 9.41425 66.1239C6.39084 66.1347 3.38016 66.1373 0.382213 66.132C0.35181 66.132 0.322652 66.1197 0.301154 66.0978C0.279656 66.076 0.267578 66.0463 0.267578 66.0154V56.987C0.267578 56.865 0.328583 56.804 0.450592 56.804C6.16224 56.8422 12.0468 57.0212 17.7605 56.4582C22.0523 56.0339 26.0404 54.7731 29.2501 51.9219Z" fill="white"/>
<path d="M191.383 1.2867L174.465 35.8096C174.459 35.8215 174.45 35.8314 174.439 35.8383C174.427 35.8452 174.414 35.8489 174.401 35.8489C174.388 35.8489 174.375 35.8452 174.363 35.8383C174.352 35.8314 174.343 35.8215 174.337 35.8096L157.449 1.2867C157.443 1.27555 157.441 1.26316 157.442 1.25073C157.442 1.2383 157.446 1.22624 157.453 1.21573C157.459 1.20522 157.469 1.1966 157.48 1.19072C157.491 1.18484 157.503 1.18188 157.515 1.18214H191.317C191.329 1.18188 191.341 1.18484 191.352 1.19072C191.363 1.1966 191.373 1.20522 191.379 1.21573C191.386 1.22624 191.39 1.2383 191.39 1.25073C191.391 1.26316 191.388 1.27555 191.383 1.2867Z" fill="#FFCB08"/>
<path d="M254.962 46.8348L274.238 65.9834C274.338 66.0826 274.317 66.1322 274.176 66.1322L261.423 66.1281C261.331 66.1281 261.24 66.1098 261.154 66.0742C261.069 66.0387 260.992 65.9866 260.927 65.921L242.137 46.9876C242.062 46.9129 241.961 46.871 241.855 46.871L227.528 46.873C227.502 46.873 227.477 46.8832 227.459 46.9013C227.441 46.9194 227.431 46.9439 227.431 46.9695V65.9974C227.431 66.0859 227.388 66.1302 227.3 66.1302L218.178 66.1281C218.15 66.1281 218.123 66.1171 218.104 66.0975C218.084 66.0779 218.073 66.0513 218.073 66.0236V1.27672C218.073 1.21103 218.106 1.17819 218.172 1.17819C232.601 1.15406 244.048 1.15205 252.514 1.17216C260.343 1.19226 267.761 5.24397 271.853 11.8494C280.752 26.2163 271.735 44.7074 255.016 46.6739C254.998 46.6762 254.982 46.6834 254.968 46.6946C254.954 46.7058 254.944 46.7207 254.939 46.7374C254.933 46.7542 254.932 46.7722 254.936 46.7894C254.94 46.8066 254.949 46.8223 254.962 46.8348ZM227.469 10.6349V37.354C227.469 37.3887 227.483 37.4219 227.508 37.4464C227.532 37.4709 227.565 37.4847 227.6 37.4847H252.496C256.058 37.4847 259.474 36.0869 261.993 33.5989C264.511 31.1108 265.926 27.7363 265.926 24.2176V23.7712C265.926 20.2526 264.511 16.878 261.993 14.39C259.474 11.9019 256.058 10.5041 252.496 10.5041H227.6C227.565 10.5041 227.532 10.5179 227.508 10.5424C227.483 10.5669 227.469 10.6002 227.469 10.6349Z" fill="white"/>
</svg>
