<svg width="240" height="84" viewBox="0 0 240 84" fill="none" xmlns="http://www.w3.org/2000/svg">
<path d="M4.22241 0.0751953H0.952337C0.855704 0.0751953 0.777344 0.153518 0.777344 0.250133V81.9398C0.777344 82.0364 0.855704 82.1147 0.952337 82.1147H4.22241C4.31904 82.1147 4.3974 82.0364 4.3974 81.9398V0.250133C4.3974 0.153518 4.31904 0.0751953 4.22241 0.0751953Z" fill="white"/>
<path d="M71.3531 1.29965C71.3879 1.27284 71.4289 1.25608 71.4758 1.24938C71.9075 1.17967 72.35 1.13409 72.8032 1.11265C72.8309 1.11147 72.858 1.12095 72.8793 1.1392C72.9005 1.15745 72.9142 1.18314 72.9178 1.21117C73.5372 7.0967 70.5165 13.3401 65.8969 16.9153C63.2563 18.9582 59.9298 20.2874 56.5491 20.0702C56.4754 20.0648 56.4358 20.0253 56.4304 19.9516C56.2025 17.1204 56.7033 14.4307 57.9327 11.8823C60.5593 6.44119 64.8155 2.97395 70.7015 1.48062C70.857 1.44174 71.0159 1.40756 71.1781 1.37807C71.2438 1.366 71.3021 1.33986 71.3531 1.29965Z" fill="white"/>
<path d="M40.9774 82.3039C37.0456 80.452 34.063 76.0725 31.7402 72.6321C26.9235 65.4898 24.0134 57.0044 23.2733 48.4325C22.2456 36.5468 27.5369 24.3655 40.0965 21.5464C42.8477 20.9291 45.8403 21.1101 48.5976 22.031C50.9064 22.8011 52.9477 23.704 55.17 24.4198C57.2012 25.0753 58.8082 24.5545 60.6886 23.8085C64.3971 22.3407 68.0936 20.8266 72.1702 20.9412C78.4228 21.1141 84.1385 23.8669 87.7585 29.0185C87.7679 29.0318 87.7744 29.0469 87.7777 29.0628C87.7811 29.0788 87.7811 29.0952 87.7779 29.1112C87.7747 29.1272 87.7683 29.1423 87.7591 29.1558C87.7499 29.1692 87.7381 29.1806 87.7244 29.1894C82.0529 32.8188 78.5375 38.9115 78.9839 45.8205C79.3982 52.2529 82.9921 57.678 88.6897 60.658C89.0852 60.8644 89.4801 61.0742 89.8743 61.2873C89.9319 61.3195 89.9507 61.3671 89.9306 61.4301C87.9898 67.3779 85.0516 72.2842 81.347 77.0518C79.9593 78.8393 78.3645 80.5002 76.4137 81.6765C73.6805 83.3294 70.3058 83.4139 67.3917 82.33C65.8853 81.767 64.021 80.8421 62.5267 80.4118C59.0005 79.401 55.4985 79.6068 52.0205 81.0291C49.5649 82.0345 47.226 83.1484 44.5129 83.1122C43.266 83.0948 42.0875 82.8254 40.9774 82.3039Z" fill="white"/>
<path d="M151.055 32.3503C151.055 32.3674 151.06 32.384 151.07 32.3976C151.081 32.4113 151.095 32.4213 151.111 32.4261C151.128 32.4308 151.145 32.4301 151.161 32.4241C151.177 32.4181 151.191 32.407 151.2 32.3926C152.239 30.7947 153.752 30.0386 155.739 30.1244C159.019 30.2672 160.503 33.0581 160.519 36.018C160.535 39.0114 160.539 42.0054 160.529 45.0001C160.529 45.0725 160.493 45.1087 160.421 45.1087H157.346C157.319 45.1087 157.294 45.0981 157.275 45.0792C157.256 45.0604 157.245 45.0348 157.245 45.0081C157.261 42.2158 157.275 39.4202 157.285 36.6212C157.289 35.6319 157.106 34.782 156.734 34.0716C155.829 32.3423 153.247 32.4428 151.98 33.7237C151.361 34.3511 151.052 35.0991 151.055 35.9677C151.063 38.9825 151.063 41.9974 151.055 45.0122C151.055 45.0765 151.023 45.1087 150.958 45.1087L147.849 45.1067C147.826 45.1067 147.804 45.0976 147.788 45.0813C147.772 45.0651 147.763 45.0431 147.763 45.0202V23.7885C147.763 23.7228 147.795 23.6899 147.859 23.6899H150.956C151.026 23.6899 151.061 23.7255 151.061 23.7965L151.055 32.3503Z" fill="white"/>
<path d="M235.723 31.9984L235.715 23.8046C235.715 23.7281 235.753 23.6899 235.83 23.6899H238.839C238.934 23.6899 238.981 23.7375 238.981 23.8327C238.984 30.3128 239.002 36.7874 239.036 43.2568C239.038 43.7943 239.051 44.3707 239.074 44.986C239.074 45.0022 239.072 45.0183 239.066 45.0334C239.06 45.0485 239.051 45.0623 239.04 45.0739C239.029 45.0856 239.015 45.0948 239 45.1011C238.985 45.1075 238.969 45.1107 238.953 45.1107L236.276 45.1087C236.256 45.1087 236.236 45.1008 236.221 45.0866C236.206 45.0723 236.197 45.0529 236.196 45.0323L236.073 43.0537C236.052 42.685 235.958 42.6656 235.792 42.9954C234.416 45.732 230.43 46.0437 228.149 44.5577C225.225 42.6515 224.62 38.5857 225.374 35.3645C225.664 34.1272 226.236 33.04 227.091 32.103C228.497 30.5628 230.287 29.9207 232.461 30.1767C233.487 30.296 234.346 30.6754 235.04 31.3148C235.237 31.4978 235.422 31.7974 235.627 32.0346C235.691 32.1084 235.723 32.0963 235.723 31.9984ZM228.833 40.319C230.313 44.2079 235.554 43.2869 235.697 39.1849C235.764 37.2747 236.073 34.9985 234.535 33.5447C233.115 32.2035 230.778 32.4066 229.579 33.9368C228.171 35.7304 228.085 38.3565 228.833 40.319Z" fill="white"/>
<path d="M193.086 28.0204C194.2 27.9893 195.078 27.083 195.048 25.9963C195.017 24.9095 194.09 24.0537 192.976 24.0848C191.863 24.1159 190.985 25.0221 191.015 26.1089C191.045 27.1957 191.973 28.0515 193.086 28.0204Z" fill="white"/>
<path d="M106.446 39.1847L104.668 45.0521C104.664 45.0671 104.654 45.0803 104.642 45.0897C104.629 45.0991 104.614 45.1042 104.598 45.1044L101.358 45.1084C101.346 45.1083 101.335 45.1055 101.325 45.1002C101.314 45.0949 101.305 45.0872 101.298 45.0778C101.292 45.0685 101.287 45.0576 101.285 45.0462C101.283 45.0347 101.284 45.023 101.288 45.0119L107.806 24.7735C107.81 24.7584 107.82 24.7453 107.832 24.7359C107.845 24.7265 107.86 24.7213 107.876 24.7212L111.812 24.7252C111.828 24.7254 111.843 24.7305 111.856 24.7399C111.868 24.7493 111.878 24.7624 111.882 24.7775L118.431 45.0119C118.434 45.023 118.435 45.0347 118.433 45.0462C118.431 45.0576 118.426 45.0685 118.42 45.0778C118.413 45.0872 118.404 45.0949 118.393 45.1002C118.383 45.1055 118.372 45.1083 118.36 45.1084L115.034 45.1064C115.018 45.1063 115.003 45.1011 114.99 45.0917C114.977 45.0823 114.968 45.0692 114.963 45.0541L113.093 39.1827C113.088 39.1676 113.079 39.1545 113.066 39.1451C113.054 39.1357 113.038 39.1305 113.023 39.1304L106.517 39.1324C106.501 39.1325 106.485 39.1377 106.473 39.1471C106.46 39.1565 106.451 39.1696 106.446 39.1847ZM109.64 27.681C108.92 30.6851 108.021 33.5807 107.062 36.5184C107.058 36.5288 107.058 36.5398 107.06 36.5505C107.061 36.5612 107.066 36.5714 107.072 36.5801C107.079 36.5889 107.087 36.596 107.097 36.601C107.106 36.606 107.117 36.6087 107.128 36.6089L112.351 36.6049C112.451 36.6049 112.486 36.5573 112.455 36.4621C111.494 33.5766 110.515 30.665 109.819 27.6831C109.76 27.431 109.7 27.4304 109.64 27.681Z" fill="white"/>
<path d="M141.332 32.9395C141.345 35.4208 141.349 37.9048 141.345 40.3914C141.345 40.5282 141.4 40.8271 141.509 41.2882C141.898 42.9109 143.309 42.8124 144.605 42.5731C144.616 42.5711 144.627 42.5715 144.638 42.5742C144.649 42.577 144.659 42.5821 144.668 42.5891C144.677 42.5962 144.684 42.6051 144.689 42.6151C144.694 42.6252 144.697 42.6363 144.697 42.6475L144.804 44.8795C144.806 44.9315 144.791 44.9827 144.761 45.0247C144.73 45.0667 144.687 45.0971 144.637 45.1107C142.33 45.73 139.396 45.6114 138.489 42.9592C138.273 42.3278 138.162 41.5221 138.155 40.5422C138.137 38.0113 138.13 35.4845 138.133 32.9616C138.133 32.949 138.131 32.9365 138.126 32.9248C138.121 32.9132 138.114 32.9025 138.105 32.8935C138.096 32.8845 138.085 32.8774 138.074 32.8725C138.062 32.8676 138.049 32.8651 138.036 32.8651L136.105 32.8812C136.038 32.8825 136.005 32.8497 136.005 32.7827L136.003 30.5024C136.003 30.4314 136.039 30.3959 136.112 30.3959L138.03 30.4059C138.104 30.4059 138.141 30.3684 138.141 30.2933L138.127 27.8744C138.126 27.8331 138.139 27.7929 138.164 27.7599C138.188 27.7269 138.222 27.7028 138.261 27.6914L141.22 26.7845C141.307 26.7577 141.351 26.7899 141.351 26.881L141.338 30.3315C141.338 30.3407 141.34 30.3498 141.343 30.3583C141.347 30.3668 141.352 30.3746 141.358 30.3812C141.365 30.3877 141.373 30.3929 141.382 30.3965C141.39 30.4001 141.399 30.4019 141.409 30.4019L144.866 30.3979C144.888 30.3974 144.909 30.4058 144.925 30.4212C144.941 30.4367 144.95 30.4579 144.95 30.4803L144.953 32.7505C144.953 32.8363 144.91 32.8785 144.824 32.8772L141.405 32.8671C141.386 32.8671 141.367 32.8747 141.354 32.8883C141.34 32.9019 141.332 32.9203 141.332 32.9395Z" fill="white"/>
<path d="M213.092 38.6398C213.296 43.4255 218.239 43.4214 221.553 42.2291C221.63 42.2009 221.677 42.227 221.694 42.3075L222.163 44.3665C222.181 44.4483 222.151 44.5039 222.072 44.5334C219.182 45.6192 215.049 45.9651 212.449 43.8618C207.831 40.1278 209.712 30.5324 216.27 30.086C221.33 29.7442 223.574 34.0452 222.891 38.479C222.888 38.4984 222.878 38.5161 222.863 38.529C222.848 38.5419 222.828 38.5491 222.808 38.5493H213.179C213.167 38.5493 213.156 38.5517 213.145 38.5563C213.134 38.5609 213.124 38.5676 213.116 38.5761C213.108 38.5845 213.102 38.5945 213.098 38.6055C213.094 38.6165 213.092 38.6281 213.092 38.6398ZM219.88 36.1565C219.956 33.9226 218.438 31.9098 215.986 32.4205C214.285 32.7724 213.259 34.4956 213.108 36.1605C213.108 36.1668 213.108 36.1732 213.11 36.1793C213.112 36.1853 213.115 36.1909 213.12 36.1957C213.124 36.2005 213.129 36.2043 213.135 36.2069C213.142 36.2095 213.148 36.2108 213.155 36.2108L219.822 36.2128C219.837 36.2128 219.851 36.207 219.862 36.1965C219.873 36.186 219.879 36.1716 219.88 36.1565Z" fill="white"/>
<path d="M167.328 44.7006C165.242 43.6369 163.953 41.4009 163.675 39.1348C163.056 34.0596 166.181 29.6057 171.67 30.1325C174.899 30.4422 177.174 32.5254 177.808 35.7728C178.566 39.6515 177.035 43.8782 173.039 45.1229C171.366 45.6436 169.029 45.5672 167.328 44.7006ZM170.725 43.0637C171.234 43.0673 171.738 42.9333 172.21 42.6694C172.681 42.4055 173.111 42.0168 173.474 41.5257C173.837 41.0345 174.126 40.4504 174.325 39.8068C174.524 39.1631 174.629 38.4725 174.634 37.7744C174.644 36.3644 174.245 35.0093 173.526 34.0072C172.807 33.0051 171.826 32.4382 170.8 32.431C170.291 32.4274 169.787 32.5614 169.315 32.8253C168.844 33.0892 168.414 33.4778 168.051 33.969C167.688 34.4602 167.399 35.0442 167.2 35.6879C167.001 36.3315 166.896 37.0222 166.891 37.7203C166.881 39.1303 167.28 40.4854 167.999 41.4875C168.718 42.4895 169.699 43.0565 170.725 43.0637Z" fill="white"/>
<path d="M183.946 33.1042C183.954 33.3268 184 33.3355 184.085 33.1304C184.943 31.0613 186.448 29.893 188.752 30.1544C188.831 30.1625 188.871 30.206 188.871 30.2851V33.2007C188.871 33.2678 188.837 33.2966 188.768 33.2872C187.294 33.0781 185.943 33.3073 185.11 34.5781C184.334 35.7645 184.364 36.9086 184.356 38.6077C184.345 40.7418 184.347 42.8692 184.36 44.9899C184.36 45.0208 184.348 45.0505 184.326 45.0724C184.304 45.0942 184.274 45.1065 184.243 45.1065H181.221C181.131 45.1065 181.086 45.0623 181.086 44.9738C181.114 40.1198 181.217 35.2839 181.02 30.4721C181.019 30.463 181.021 30.4539 181.024 30.4453C181.027 30.4368 181.032 30.429 181.038 30.4225C181.044 30.4159 181.052 30.4107 181.06 30.4071C181.068 30.4036 181.077 30.4017 181.086 30.4018L183.751 30.3997C183.818 30.3997 183.852 30.4333 183.853 30.5003L183.946 33.1042Z" fill="white"/>
<path d="M203.451 39.3819C202.414 38.8551 201.348 38.5253 200.34 37.9361C198.202 36.6834 197.482 34.2303 198.918 32.1773C200.698 29.6337 204.626 29.69 207.116 30.9286C207.184 30.9621 207.207 31.0157 207.186 31.0895L206.53 33.245C206.513 33.3053 206.477 33.3194 206.424 33.2872C205.189 32.5533 202.094 31.745 201.432 33.6733C201.07 34.729 201.762 35.4689 202.753 35.9173C204.187 36.5668 205.78 37.0132 206.832 38.3122C208.32 40.15 207.992 42.9389 205.997 44.3364C203.91 45.8003 200.042 45.742 197.898 44.4591C197.833 44.4189 197.811 44.3619 197.832 44.2882L198.46 42.1005C198.48 42.0281 198.523 42.0093 198.588 42.0442C199.076 42.3029 199.575 42.518 200.085 42.6896C201.311 43.1018 204.008 43.3693 204.511 41.8391C204.833 40.8538 204.382 39.8564 203.451 39.3819Z" fill="white"/>
<path d="M130.533 42.9615C130.526 42.8529 130.492 42.8442 130.43 42.9354C129.189 44.8014 127.436 45.6204 125.173 45.3925C121.947 45.0668 120.783 42.2598 120.777 39.3864C120.77 36.4654 120.768 33.5176 120.771 30.543C120.771 30.4518 120.816 30.4062 120.907 30.4062L123.908 30.4243C123.943 30.4249 123.976 30.4389 124.001 30.4633C124.025 30.4878 124.039 30.5207 124.039 30.555C124.041 33.3996 124.054 36.2422 124.077 39.0827C124.093 40.9668 124.904 42.8248 127.037 42.7604C129.33 42.6921 130.183 40.8401 130.181 38.8254C130.177 36.2288 130.177 33.4834 130.181 30.5892C130.181 30.4672 130.242 30.4062 130.364 30.4062L133.312 30.4203C133.395 30.4203 133.437 30.4619 133.437 30.545C133.431 35.3548 133.26 40.2289 133.574 44.9984C133.575 45.0126 133.573 45.0268 133.568 45.0401C133.564 45.0535 133.556 45.0658 133.547 45.0762C133.537 45.0866 133.525 45.0949 133.512 45.1005C133.499 45.1062 133.485 45.1091 133.471 45.109L130.806 45.105C130.712 45.105 130.663 45.0587 130.657 44.9663L130.533 42.9615Z" fill="white"/>
<path d="M194.586 30.4004H191.465C191.421 30.4004 191.385 30.4364 191.385 30.4808V45.0267C191.385 45.0712 191.421 45.1072 191.465 45.1072H194.586C194.631 45.1072 194.667 45.0712 194.667 45.0267V30.4808C194.667 30.4364 194.631 30.4004 194.586 30.4004Z" fill="white"/>
<path d="M164.68 58.4004H161.587C161.535 58.4004 161.492 58.4427 161.492 58.4949V79.7206C161.492 79.7728 161.535 79.8151 161.587 79.8151H164.68C164.732 79.8151 164.774 79.7728 164.774 79.7206V58.4949C164.774 58.4427 164.732 58.4004 164.68 58.4004Z" fill="white"/>
<path d="M172.068 58.396H168.915C168.878 58.396 168.849 58.4257 168.849 58.4623V79.7484C168.849 79.785 168.878 79.8147 168.915 79.8147H172.068C172.105 79.8147 172.135 79.785 172.135 79.7484V58.4623C172.135 58.4257 172.105 58.396 172.068 58.396Z" fill="white"/>
<path d="M112.139 70.1392C113.455 70.8322 114.312 71.9267 114.709 73.4228C115.138 75.0434 115.564 76.6661 115.986 78.2908C116.113 78.7788 116.276 79.2574 116.475 79.7265C116.479 79.7366 116.481 79.7475 116.48 79.7584C116.479 79.7693 116.475 79.7798 116.469 79.7889C116.463 79.7981 116.455 79.8056 116.446 79.8109C116.436 79.8161 116.425 79.8189 116.414 79.819L113.235 79.813C113.157 79.813 113.101 79.7781 113.068 79.7084C112.935 79.4283 112.827 79.1414 112.744 78.8478C112.33 77.3679 111.956 75.8786 111.624 74.3799C110.894 71.0862 108.915 71.2712 106.131 71.2893C106.054 71.2907 106.015 71.3302 106.015 71.408L106.017 79.7044C106.017 79.7781 105.98 79.815 105.906 79.815H102.857C102.793 79.815 102.761 79.7828 102.761 79.7185L102.763 59.842C102.763 59.775 102.796 59.7354 102.861 59.7234C106.799 59.0277 115.355 58.2756 115.773 64.3984C115.847 65.4641 115.68 66.43 115.272 67.2959C114.731 68.4461 113.464 69.7189 112.153 70.0225C112.14 70.0254 112.129 70.032 112.12 70.0416C112.112 70.0511 112.106 70.0631 112.105 70.0759C112.103 70.0887 112.105 70.1016 112.112 70.1129C112.118 70.1243 112.127 70.1334 112.139 70.1392ZM111.334 67.8911C112.485 66.9923 112.766 65.3777 112.354 64.0687C111.535 61.4707 108.245 61.6457 106.152 61.9513C106.114 61.9562 106.08 61.9746 106.055 62.003C106.031 62.0315 106.017 62.0681 106.017 62.1061V68.792C106.017 68.8106 106.024 68.8285 106.037 68.8417C106.051 68.8549 106.068 68.8623 106.087 68.8623C107.955 68.8221 109.747 69.1318 111.334 67.8911Z" fill="white"/>
<path d="M121.455 73.3621C121.55 78.1356 126.596 78.1195 129.862 76.9734C129.883 76.9661 129.905 76.9632 129.927 76.965C129.948 76.9668 129.97 76.9732 129.989 76.9839C130.008 76.9945 130.025 77.0091 130.038 77.0268C130.051 77.0444 130.06 77.0646 130.065 77.086L130.491 79.0083C130.505 79.07 130.496 79.1347 130.465 79.19C130.434 79.2452 130.384 79.2872 130.324 79.3079C125.142 81.1035 118.803 80.1504 118.322 73.4706C117.994 68.9002 120.651 64.4443 125.755 64.8143C130.123 65.13 131.785 69.252 131.27 73.0806C131.252 73.2092 131.179 73.2736 131.049 73.2736L121.546 73.2696C121.484 73.2696 121.454 73.3004 121.455 73.3621ZM125.421 67.1166C123.07 66.7889 121.747 68.8298 121.435 70.8687C121.427 70.9223 121.45 70.9491 121.504 70.9491H128.124C128.177 70.9491 128.204 70.923 128.207 70.8707C128.295 69.0188 127.368 67.3881 125.421 67.1166Z" fill="white"/>
<path d="M141.001 79.3557C138.98 80.5039 135.38 80.3812 133.343 79.1828C133.277 79.1453 133.255 79.0896 133.276 79.0159L133.892 76.8382C133.912 76.7672 133.955 76.7477 134.021 76.7799C134.417 76.9689 134.809 77.1392 135.195 77.2907C136.492 77.7994 139.865 78.3463 140.046 76.044C140.134 74.924 139.378 74.3047 138.391 73.8804C137.015 73.2892 135.491 72.7865 134.475 71.576C132.951 69.7563 133.6 66.9935 135.537 65.7368C137.522 64.4458 140.394 64.6429 142.496 65.6141C142.608 65.6664 142.646 65.7515 142.61 65.8695L141.985 67.9386C141.963 68.0069 141.92 68.025 141.856 67.9928C140.555 67.3273 137.645 66.4727 136.905 68.3005C136.207 70.0277 138.347 70.7838 139.599 71.2603C140.509 71.6062 141.387 72.0908 142.051 72.7865C143.964 74.7953 143.431 77.9763 141.001 79.3557Z" fill="white"/>
<path d="M148.576 73.3461C148.555 74.8354 149.087 75.9776 150.17 76.7725C151.98 78.1016 155.092 77.6411 157.012 76.9675C157.083 76.9434 157.127 76.9675 157.143 77.0399L157.602 79.0567C157.619 79.1305 157.594 79.1847 157.527 79.2196C157.243 79.3684 156.949 79.4864 156.646 79.5735C152.938 80.6231 148.427 80.4321 146.347 76.7403C144.453 73.3763 145.309 68.102 148.624 65.8661C150.796 64.4002 154.309 64.366 156.316 66.2039C158.149 67.8829 158.724 70.7543 158.338 73.1571C158.326 73.2335 158.281 73.2717 158.205 73.2717H148.65C148.602 73.2717 148.577 73.2965 148.576 73.3461ZM153.183 67.2676C150.613 66.5135 148.789 68.4419 148.565 70.8548C148.56 70.9178 148.588 70.9493 148.65 70.9493H155.238C155.296 70.9493 155.326 70.9205 155.327 70.8628C155.369 69.4251 154.701 67.714 153.183 67.2676Z" fill="white"/>
<path d="M178.447 73.3782C178.382 75.9861 180.446 77.6812 183.036 77.6109C184.485 77.5706 185.775 77.3562 186.903 76.9674C186.962 76.9473 186.999 76.9674 187.012 77.0277L187.481 79.0747C187.498 79.1484 187.473 79.2014 187.404 79.2335C187.147 79.3569 186.847 79.4668 186.505 79.5633C184.092 80.243 181.176 80.4159 178.968 79.3542C175.579 77.7235 174.744 73.7582 175.514 70.366C176.341 66.7346 179.33 64.39 183.135 64.8646C187.284 65.3813 188.764 69.5477 188.225 73.1731C188.214 73.2388 188.175 73.2716 188.108 73.2716L178.557 73.2696C178.485 73.2696 178.448 73.3058 178.447 73.3782ZM178.585 70.9612L185.214 70.9371C185.23 70.9371 185.245 70.9307 185.257 70.9194C185.268 70.9081 185.274 70.8928 185.274 70.8768V70.8044C185.271 69.8138 184.913 68.865 184.278 68.1666C183.644 67.4683 182.785 67.0776 181.892 67.0804H181.884C181.441 67.0818 181.003 67.1799 180.594 67.369C180.186 67.5582 179.815 67.8347 179.503 68.1827C179.191 68.5308 178.945 68.9436 178.777 69.3976C178.609 69.8515 178.523 70.3378 178.525 70.8285V70.9009C178.525 70.9169 178.531 70.9322 178.543 70.9436C178.554 70.9549 178.569 70.9612 178.585 70.9612Z" fill="white"/>
<path d="M194.354 67.8708C194.551 67.4706 194.734 67.0323 194.948 66.7146C195.812 65.4136 197.421 64.5651 199.04 64.8948C199.071 64.9013 199.098 64.9176 199.117 64.941C199.136 64.9644 199.147 64.9936 199.147 65.0235L199.145 67.9371C199.145 68.0028 199.112 68.0296 199.046 68.0176C196.08 67.4606 194.646 69.5377 194.634 72.212C194.62 74.7161 194.62 77.2202 194.634 79.7243C194.634 79.7846 194.604 79.8148 194.545 79.8148H191.452C191.388 79.8148 191.356 79.7826 191.358 79.7182C191.392 73.9976 191.49 69.6061 191.289 65.2447C191.285 65.171 191.321 65.1341 191.396 65.1341L194.047 65.1281C194.071 65.1281 194.094 65.1373 194.111 65.1539C194.129 65.1704 194.139 65.1929 194.139 65.2166L194.22 67.8426C194.22 67.8587 194.225 67.8743 194.235 67.8868C194.246 67.8993 194.26 67.9079 194.276 67.9112C194.291 67.9145 194.308 67.9122 194.322 67.9049C194.336 67.8975 194.348 67.8855 194.354 67.8708Z" fill="white"/>
</svg>
