<svg width="21" height="21" viewBox="0 0 21 21" fill="none" xmlns="http://www.w3.org/2000/svg">
<path d="M10.5003 5.10179C13.2831 5.10179 15.5799 7.50803 15.5799 10.4233C15.5799 13.3848 13.2831 15.7448 10.5003 15.7448C7.67338 15.7448 5.42068 13.3848 5.42068 10.4233C5.42068 7.50803 7.67338 5.10179 10.5003 5.10179ZM10.5003 13.8939C12.3113 13.8939 13.7689 12.3668 13.7689 10.4233C13.7689 8.52607 12.3113 6.99902 10.5003 6.99902C8.64513 6.99902 7.1875 8.52607 7.1875 10.4233C7.1875 12.3668 8.68931 13.8939 10.5003 13.8939ZM16.9492 4.91669C16.9492 5.6108 16.4192 6.1661 15.7566 6.1661C15.0941 6.1661 14.564 5.6108 14.564 4.91669C14.564 4.22259 15.0941 3.66729 15.7566 3.66729C16.4192 3.66729 16.9492 4.22259 16.9492 4.91669ZM20.3062 6.1661C20.3945 7.87822 20.3945 13.0146 20.3062 14.7268C20.2178 16.3926 19.8645 17.8271 18.716 19.0766C17.5676 20.2796 16.1541 20.6499 14.564 20.7425C12.9297 20.8349 8.02674 20.8349 6.39243 20.7425C4.80229 20.6499 3.43299 20.2796 2.24039 19.0766C1.09195 17.8271 0.738582 16.3926 0.650241 14.7268C0.561899 13.0146 0.561899 7.87822 0.650241 6.1661C0.738582 4.50023 1.09195 3.01946 2.24039 1.81633C3.43299 0.613206 4.80229 0.243014 6.39243 0.150466C8.02674 0.0579175 12.9297 0.0579175 14.564 0.150466C16.1541 0.243014 17.5676 0.613206 18.716 1.81633C19.8645 3.01946 20.2178 4.50023 20.3062 6.1661ZM18.186 16.5315C18.716 15.1895 18.5835 11.9503 18.5835 10.4233C18.5835 8.94253 18.716 5.70335 18.186 4.31512C17.8327 3.43592 17.1701 2.69553 16.3309 2.37162C15.0057 1.81633 11.9138 1.95515 10.5003 1.95515C9.04267 1.95515 5.95072 1.81633 4.66976 2.37162C3.78636 2.74182 3.12379 3.43592 2.77043 4.31512C2.24039 5.70335 2.3729 8.94253 2.3729 10.4233C2.3729 11.9503 2.24039 15.1895 2.77043 16.5315C3.12379 17.4569 3.78636 18.1511 4.66976 18.5213C5.95072 19.0766 9.04267 18.9376 10.5003 18.9376C11.9138 18.9376 15.0057 19.0766 16.3309 18.5213C17.1701 18.1511 17.8768 17.4569 18.186 16.5315Z" fill="white"/>
</svg>
