<svg width="29" height="44" viewBox="0 0 29 44" fill="none" xmlns="http://www.w3.org/2000/svg">
<g id="Frame 427318550">
<path id="Vector" d="M0.884766 11.4174C0.884766 5.01717 6.91186 0 14.5723 0C22.2622 0 28.3191 5.15275 28.3191 11.553C28.3191 18.6313 23.0341 20.367 22.2917 33.0863C22.2324 33.7372 21.7575 34.171 21.015 34.171H8.159C7.44635 34.171 6.97145 33.7372 6.91186 33.0863C6.11037 20.367 0.884766 18.4958 0.884766 11.4174ZM8.48554 38.7543C7.6841 38.7543 7.00094 38.1578 7.00094 37.4255C7.00094 36.6932 7.6841 36.0694 8.48554 36.0694H20.7183C21.5197 36.0694 22.2026 36.6932 22.2026 37.4255C22.2026 38.1578 21.5197 38.7543 20.7183 38.7543H8.48554ZM14.6018 43.69C11.7515 43.69 9.55452 42.4698 9.37635 40.6527H19.8573C19.6195 42.4698 17.4226 43.69 14.6018 43.69Z" fill="white"/>
</g>
</svg>
