<svg width="722" height="175" viewBox="0 0 722 175" fill="none" xmlns="http://www.w3.org/2000/svg">
<path opacity="0.92" d="M68.9528 9.02051L60.2516 39H55.6638L45.3014 0.952148H50.3903L57.9313 31.8281H58.195L66.6852 0.952148H71.5368L80.027 31.8281H80.2907L87.8317 0.952148H92.8942L82.5583 39H77.9704L69.2429 9.02051H68.9528ZM107.941 14.7158C103.59 14.7158 100.505 17.9062 100.189 22.6523H115.35C115.244 17.8799 112.318 14.7158 107.941 14.7158ZM115.244 31.3535H119.859C118.804 36.2051 114.19 39.3955 108.125 39.3955C100.268 39.3955 95.3635 33.8584 95.3635 25.1045C95.3635 16.3506 100.321 10.6553 108.02 10.6553C115.561 10.6553 120.201 15.9814 120.201 24.5508V26.3174H100.162V26.5547C100.294 31.9072 103.432 35.335 108.231 35.335C111.738 35.335 114.295 33.8584 115.244 31.3535ZM127.522 39V0.108398H132.189V39H127.522ZM164.137 19.9365H159.523C158.89 17.0625 156.438 14.7949 152.377 14.7949C147.499 14.7949 144.309 18.7764 144.309 24.9727C144.309 31.3271 147.552 35.2559 152.404 35.2559C156.174 35.2559 158.758 33.4893 159.523 30.2461H164.163C163.399 35.5986 158.995 39.3955 152.404 39.3955C144.599 39.3955 139.536 33.832 139.536 24.9727C139.536 16.2979 144.573 10.6553 152.377 10.6553C159.259 10.6553 163.478 14.9268 164.137 19.9365ZM182.4 39.3955C174.437 39.3955 169.454 33.8584 169.454 25.0254C169.454 16.166 174.437 10.6553 182.4 10.6553C190.337 10.6553 195.32 16.166 195.32 25.0254C195.32 33.8584 190.337 39.3955 182.4 39.3955ZM182.4 35.2559C187.568 35.2559 190.548 31.4854 190.548 25.0254C190.548 18.5654 187.568 14.7949 182.4 14.7949C177.206 14.7949 174.226 18.5654 174.226 25.0254C174.226 31.4854 177.232 35.2559 182.4 35.2559ZM202.43 39V11.0508H206.86V15.5596H207.123C208.415 12.4746 211.316 10.6553 214.981 10.6553C218.804 10.6553 221.52 12.6328 222.759 15.7969H223.023C224.552 12.6328 227.795 10.6553 231.698 10.6553C237.314 10.6553 240.689 14.1094 240.689 19.8047V39H236.022V20.8857C236.022 16.9307 234.018 14.8213 230.221 14.8213C226.45 14.8213 223.866 17.6162 223.866 21.2549V39H219.226V20.3057C219.226 16.957 216.958 14.8213 213.478 14.8213C209.839 14.8213 207.097 17.8271 207.097 21.7031V39H202.43ZM260.165 14.7158C255.814 14.7158 252.729 17.9062 252.413 22.6523H267.574C267.469 17.8799 264.542 14.7158 260.165 14.7158ZM267.469 31.3535H272.083C271.028 36.2051 266.414 39.3955 260.349 39.3955C252.492 39.3955 247.588 33.8584 247.588 25.1045C247.588 16.3506 252.545 10.6553 260.244 10.6553C267.785 10.6553 272.426 15.9814 272.426 24.5508V26.3174H252.387V26.5547C252.518 31.9072 255.656 35.335 260.455 35.335C263.962 35.335 266.519 33.8584 267.469 31.3535ZM295.557 4.06348H300.224V11.0508H306.052V14.9004H300.224V30.9844C300.224 33.9111 301.385 35.1768 304.048 35.1768C304.707 35.1768 305.472 35.124 306.052 35.0449V38.9473C305.313 39.1055 304.232 39.1846 303.23 39.1846C297.746 39.1846 295.557 37.0752 295.557 31.7227V14.9004H291.233V11.0508H295.557V4.06348ZM324.13 39.3955C316.167 39.3955 311.184 33.8584 311.184 25.0254C311.184 16.166 316.167 10.6553 324.13 10.6553C332.067 10.6553 337.05 16.166 337.05 25.0254C337.05 33.8584 332.067 39.3955 324.13 39.3955ZM324.13 35.2559C329.298 35.2559 332.278 31.4854 332.278 25.0254C332.278 18.5654 329.298 14.7949 324.13 14.7949C318.936 14.7949 315.956 18.5654 315.956 25.0254C315.956 31.4854 318.962 35.2559 324.13 35.2559Z" fill="white"/>
<path d="M469.222 77.0752H465.952C465.856 77.0752 465.777 77.1535 465.777 77.2501V158.94C465.777 159.036 465.856 159.115 465.952 159.115H469.222C469.319 159.115 469.397 159.036 469.397 158.94V77.2501C469.397 77.1535 469.319 77.0752 469.222 77.0752Z" fill="white"/>
<path d="M536.353 78.2996C536.388 78.2728 536.429 78.2561 536.476 78.2494C536.908 78.1797 537.35 78.1341 537.803 78.1126C537.831 78.1115 537.858 78.121 537.879 78.1392C537.901 78.1575 537.914 78.1831 537.918 78.2112C538.537 84.0967 535.516 90.3401 530.897 93.9153C528.256 95.9582 524.93 97.2874 521.549 97.0702C521.475 97.0648 521.436 97.0253 521.43 96.9516C521.202 94.1204 521.703 91.4307 522.933 88.8823C525.559 83.4412 529.816 79.9739 535.701 78.4806C535.857 78.4417 536.016 78.4076 536.178 78.3781C536.244 78.366 536.302 78.3399 536.353 78.2996Z" fill="white"/>
<path d="M65.7201 151.013C65.7056 151.042 65.6834 151.067 65.6561 151.084C65.6287 151.101 65.5973 151.11 65.5652 151.11L54.7594 151.106C54.7463 151.106 54.7334 151.103 54.7219 151.096C54.7105 151.09 54.7009 151.081 54.6942 151.07C54.6875 151.058 54.6838 151.046 54.6836 151.033C54.6834 151.019 54.6866 151.007 54.693 150.995C65.6926 130.739 76.6862 110.488 87.6737 90.2437C89.2867 87.2718 92.4683 84.8488 95.9375 86.4212C97.9064 87.314 99.3383 89.001 100.33 90.871C110.951 110.898 121.566 130.928 132.174 150.961C132.182 150.976 132.186 150.993 132.185 151.01C132.185 151.028 132.18 151.044 132.171 151.059C132.162 151.074 132.15 151.086 132.135 151.095C132.12 151.103 132.103 151.108 132.086 151.108H121.531C121.487 151.108 121.443 151.095 121.404 151.072C121.366 151.049 121.335 151.015 121.314 150.975L111.838 132.474C111.813 132.427 111.775 132.387 111.73 132.359C111.684 132.332 111.632 132.317 111.578 132.317H75.5083C75.4302 132.317 75.3537 132.339 75.2873 132.38C75.2209 132.42 75.1672 132.479 75.1322 132.548L65.7201 151.013ZM80.5543 122.915C80.5466 122.929 80.5428 122.945 80.5433 122.962C80.5438 122.978 80.5485 122.994 80.5571 123.008C80.5656 123.022 80.5776 123.034 80.5919 123.042C80.6062 123.05 80.6224 123.054 80.6387 123.053L106.856 123.057C106.872 123.057 106.889 123.053 106.903 123.045C106.917 123.037 106.929 123.025 106.938 123.011C106.946 122.996 106.95 122.98 106.951 122.964C106.951 122.947 106.947 122.931 106.938 122.917L93.7433 98.8357C93.7351 98.8211 93.7232 98.8089 93.7087 98.8004C93.6942 98.7919 93.6777 98.7874 93.6609 98.7874C93.6441 98.7874 93.6276 98.7919 93.6131 98.8004C93.5986 98.8089 93.5866 98.8211 93.5784 98.8357L80.5543 122.915Z" fill="white"/>
<path d="M347.137 132.415C347.122 132.386 347.099 132.361 347.071 132.344C347.042 132.326 347.01 132.317 346.976 132.317H310.736C310.69 132.317 310.645 132.329 310.606 132.353C310.566 132.377 310.535 132.411 310.514 132.452L301.074 150.973C301.027 151.063 300.954 151.108 300.853 151.108H290.067C290.057 151.108 290.046 151.105 290.037 151.099C290.028 151.094 290.02 151.087 290.015 151.077C290.01 151.068 290.007 151.058 290.007 151.047C290.007 151.037 290.01 151.026 290.015 151.017C300.646 131.437 311.277 111.853 321.91 92.2643C323.267 89.7669 324.548 87.1951 327.428 86.2038C328.615 85.795 329.791 85.8225 330.956 86.2863C333.387 87.2535 334.843 89.2743 336.024 91.5062C346.527 111.342 357.025 131.168 367.516 150.985C367.523 150.998 367.526 151.012 367.525 151.026C367.525 151.041 367.521 151.055 367.513 151.067C367.506 151.079 367.495 151.089 367.483 151.096C367.47 151.104 367.456 151.107 367.442 151.108H356.823C356.752 151.108 356.7 151.076 356.666 151.013L347.137 132.415ZM315.888 122.91C315.88 122.925 315.876 122.942 315.876 122.959C315.877 122.976 315.882 122.992 315.89 123.007C315.899 123.021 315.912 123.033 315.926 123.041C315.941 123.049 315.958 123.054 315.975 123.053L342.182 123.055C342.199 123.055 342.215 123.051 342.23 123.043C342.244 123.034 342.256 123.022 342.265 123.008C342.273 122.993 342.278 122.977 342.278 122.96C342.278 122.944 342.274 122.927 342.266 122.912L329.079 98.8355C329.071 98.8205 329.058 98.8081 329.043 98.7995C329.029 98.7909 329.012 98.7865 328.994 98.7867C328.977 98.7869 328.96 98.7917 328.945 98.8007C328.931 98.8096 328.919 98.8223 328.91 98.8375L315.888 122.91Z" fill="white"/>
<path d="M429.286 132.317H393.027C392.988 132.317 392.95 132.328 392.916 132.349C392.883 132.369 392.856 132.399 392.838 132.434L383.388 150.967C383.367 151.009 383.334 151.045 383.293 151.07C383.253 151.095 383.206 151.108 383.159 151.108H372.385C372.314 151.108 372.295 151.076 372.329 151.013C383.222 130.952 394.1 110.916 404.961 90.9033C406.045 88.9046 407.465 87.0104 409.587 86.2363C413.282 84.887 416.489 88.0279 418.048 90.9716C428.655 110.999 439.261 131.026 449.868 151.053C449.871 151.059 449.873 151.066 449.873 151.073C449.873 151.079 449.871 151.086 449.867 151.091C449.864 151.097 449.859 151.102 449.853 151.105C449.847 151.108 449.841 151.11 449.834 151.11L439.121 151.108C439.092 151.108 439.064 151.1 439.04 151.085C439.016 151.07 438.997 151.049 438.984 151.023L429.453 132.418C429.437 132.387 429.413 132.362 429.384 132.344C429.354 132.327 429.321 132.317 429.286 132.317ZM398.188 122.937C398.181 122.949 398.178 122.962 398.178 122.976C398.178 122.99 398.182 123.003 398.189 123.015C398.196 123.027 398.205 123.036 398.217 123.043C398.229 123.05 398.243 123.053 398.256 123.054L424.526 123.058C424.539 123.057 424.553 123.054 424.565 123.047C424.577 123.04 424.586 123.031 424.593 123.019C424.6 123.007 424.604 122.994 424.604 122.98C424.604 122.966 424.601 122.953 424.594 122.941L411.375 98.8076C411.368 98.7955 411.358 98.7854 411.346 98.7783C411.334 98.7713 411.32 98.7676 411.307 98.7676C411.293 98.7676 411.279 98.7713 411.267 98.7783C411.255 98.7854 411.245 98.7955 411.238 98.8076L398.188 122.937Z" fill="white"/>
<path d="M151.102 137.686L162.694 116.39C162.729 116.326 162.728 116.261 162.692 116.197L146.369 86.3249C146.313 86.2216 146.344 86.17 146.462 86.17L156.777 86.166C156.836 86.1659 156.894 86.1819 156.945 86.2124C156.996 86.2428 157.038 86.2865 157.067 86.3389L184.915 137.598C184.975 137.709 185.036 137.709 185.098 137.6L213.797 86.2826C213.816 86.2486 213.844 86.2202 213.877 86.2004C213.911 86.1806 213.949 86.1701 213.988 86.17L224.478 86.168C224.488 86.1678 224.498 86.1702 224.507 86.175C224.516 86.1798 224.523 86.1869 224.528 86.1955C224.533 86.2041 224.536 86.2139 224.536 86.2239C224.536 86.234 224.533 86.2438 224.528 86.2525C213.128 106.627 201.727 126.998 190.327 147.366C189.295 149.208 187.433 152.371 184.901 152.266C181.902 152.139 179.583 147.372 178.357 145.108C175.053 139.019 171.747 132.932 168.44 126.846C168.348 126.68 168.271 126.523 168.208 126.375C168.199 126.353 168.183 126.334 168.164 126.32C168.144 126.306 168.121 126.298 168.096 126.297C168.072 126.296 168.048 126.301 168.027 126.313C168.006 126.325 167.989 126.342 167.977 126.363C163.852 133.63 159.737 140.884 155.633 148.126C154.504 150.113 153.115 152.433 150.522 152.262C148.075 152.101 146.778 149.813 145.748 147.927C134.538 127.381 123.325 106.824 112.11 86.2565C112.105 86.2474 112.102 86.2372 112.103 86.2269C112.103 86.2166 112.106 86.2065 112.111 86.1977C112.116 86.1888 112.124 86.1814 112.133 86.1762C112.141 86.171 112.152 86.1682 112.162 86.168H122.594C122.62 86.1681 122.647 86.1754 122.67 86.1892C122.693 86.203 122.712 86.2228 122.724 86.2464L150.834 137.686C150.923 137.85 151.012 137.85 151.102 137.686Z" fill="white"/>
<path d="M40.2501 136.922C44.9864 132.717 45.3243 126.482 45.3162 120.608C45.2988 109.144 45.2894 97.687 45.2881 86.2363C45.2881 86.1908 45.3109 86.168 45.3564 86.168L54.4971 86.174C54.5373 86.174 54.5574 86.1941 54.5574 86.2343C54.5641 98.4062 54.5675 110.585 54.5675 122.77C54.5675 128.091 53.5639 133.709 51.0158 138.388C44.9059 149.6 31.6867 151.088 20.4143 151.124C17.3908 151.135 14.3802 151.137 11.3822 151.132C11.3518 151.132 11.3227 151.12 11.3012 151.098C11.2797 151.076 11.2676 151.046 11.2676 151.015V141.987C11.2676 141.865 11.3286 141.804 11.4506 141.804C17.1622 141.842 23.0468 142.021 28.7605 141.458C33.0523 141.034 37.0404 139.773 40.2501 136.922Z" fill="white"/>
<path d="M202.383 86.2867L185.465 120.81C185.459 120.821 185.45 120.831 185.439 120.838C185.427 120.845 185.414 120.849 185.401 120.849C185.388 120.849 185.375 120.845 185.363 120.838C185.352 120.831 185.343 120.821 185.337 120.81L168.449 86.2867C168.443 86.2756 168.441 86.2632 168.442 86.2507C168.442 86.2383 168.446 86.2262 168.453 86.2157C168.459 86.2052 168.469 86.1966 168.48 86.1907C168.491 86.1848 168.503 86.1819 168.515 86.1821H202.317C202.329 86.1819 202.341 86.1848 202.352 86.1907C202.363 86.1966 202.373 86.2052 202.379 86.2157C202.386 86.2262 202.39 86.2383 202.39 86.2507C202.391 86.2632 202.388 86.2756 202.383 86.2867Z" fill="#FFCB08"/>
<path d="M265.962 131.835L285.238 150.983C285.338 151.083 285.317 151.132 285.176 151.132L272.423 151.128C272.331 151.128 272.24 151.11 272.154 151.074C272.069 151.039 271.992 150.987 271.927 150.921L253.137 131.988C253.062 131.913 252.961 131.871 252.855 131.871L238.528 131.873C238.502 131.873 238.477 131.883 238.459 131.901C238.441 131.919 238.431 131.944 238.431 131.97V150.997C238.431 151.086 238.388 151.13 238.3 151.13L229.178 151.128C229.15 151.128 229.123 151.117 229.104 151.098C229.084 151.078 229.073 151.051 229.073 151.024V86.2767C229.073 86.211 229.106 86.1782 229.172 86.1782C243.601 86.1541 255.048 86.152 263.514 86.1722C271.343 86.1923 278.761 90.244 282.853 96.8494C291.752 111.216 282.735 129.707 266.016 131.674C265.998 131.676 265.982 131.683 265.968 131.695C265.954 131.706 265.944 131.721 265.939 131.737C265.933 131.754 265.932 131.772 265.936 131.789C265.94 131.807 265.949 131.822 265.962 131.835ZM238.469 95.6349V122.354C238.469 122.389 238.483 122.422 238.508 122.446C238.532 122.471 238.565 122.485 238.6 122.485H263.496C267.058 122.485 270.474 121.087 272.993 118.599C275.511 116.111 276.926 112.736 276.926 109.218V108.771C276.926 105.253 275.511 101.878 272.993 99.39C270.474 96.9019 267.058 95.5042 263.496 95.5042H238.6C238.565 95.5042 238.532 95.5179 238.508 95.5424C238.483 95.5669 238.469 95.6002 238.469 95.6349Z" fill="white"/>
<path d="M505.977 159.304C502.046 157.452 499.063 153.073 496.74 149.632C491.923 142.49 489.013 134.004 488.273 125.432C487.246 113.547 492.537 101.366 505.096 98.5464C507.848 97.9291 510.84 98.1101 513.598 99.031C515.906 99.8011 517.948 100.704 520.17 101.42C522.201 102.075 523.808 101.555 525.689 100.809C529.397 99.3407 533.094 97.8266 537.17 97.9412C543.423 98.1141 549.138 100.867 552.759 106.018C552.768 106.032 552.774 106.047 552.778 106.063C552.781 106.079 552.781 106.095 552.778 106.111C552.775 106.127 552.768 106.142 552.759 106.156C552.75 106.169 552.738 106.181 552.724 106.189C547.053 109.819 543.537 115.911 543.984 122.82C544.398 129.253 547.992 134.678 553.69 137.658C554.085 137.864 554.48 138.074 554.874 138.287C554.932 138.319 554.951 138.367 554.931 138.43C552.99 144.378 550.052 149.284 546.347 154.052C544.959 155.839 543.364 157.5 541.414 158.677C538.681 160.329 535.306 160.414 532.392 159.33C530.885 158.767 529.021 157.842 527.527 157.412C524.001 156.401 520.498 156.607 517.021 158.029C514.565 159.034 512.226 160.148 509.513 160.112C508.266 160.095 507.088 159.825 505.977 159.304Z" fill="white"/>
<path d="M616.055 109.35C616.055 109.367 616.06 109.384 616.07 109.398C616.081 109.411 616.095 109.421 616.111 109.426C616.128 109.431 616.145 109.43 616.161 109.424C616.177 109.418 616.191 109.407 616.2 109.393C617.239 107.795 618.752 107.039 620.739 107.124C624.019 107.267 625.503 110.058 625.519 113.018C625.535 116.011 625.539 119.005 625.529 122C625.529 122.072 625.493 122.109 625.421 122.109H622.346C622.319 122.109 622.294 122.098 622.275 122.079C622.256 122.06 622.245 122.035 622.245 122.008C622.261 119.216 622.275 116.42 622.285 113.621C622.289 112.632 622.106 111.782 621.734 111.072C620.829 109.342 618.247 109.443 616.98 110.724C616.361 111.351 616.052 112.099 616.055 112.968C616.063 115.983 616.063 118.997 616.055 122.012C616.055 122.077 616.023 122.109 615.958 122.109L612.849 122.107C612.826 122.107 612.804 122.098 612.788 122.081C612.772 122.065 612.763 122.043 612.763 122.02V100.788C612.763 100.723 612.795 100.69 612.859 100.69H615.956C616.026 100.69 616.061 100.725 616.061 100.797L616.055 109.35Z" fill="white"/>
<path d="M700.723 108.998L700.715 100.805C700.715 100.728 700.753 100.69 700.83 100.69H703.839C703.934 100.69 703.981 100.738 703.981 100.833C703.984 107.313 704.002 113.787 704.036 120.257C704.038 120.794 704.051 121.371 704.074 121.986C704.074 122.002 704.072 122.018 704.066 122.033C704.06 122.049 704.051 122.062 704.04 122.074C704.029 122.086 704.015 122.095 704 122.101C703.985 122.107 703.969 122.111 703.953 122.111L701.276 122.109C701.256 122.109 701.236 122.101 701.221 122.087C701.206 122.072 701.197 122.053 701.196 122.032L701.073 120.054C701.052 119.685 700.958 119.666 700.792 119.995C699.416 122.732 695.43 123.044 693.149 121.558C690.225 119.652 689.62 115.586 690.374 112.364C690.664 111.127 691.236 110.04 692.091 109.103C693.497 107.563 695.287 106.921 697.461 107.177C698.487 107.296 699.346 107.675 700.04 108.315C700.237 108.498 700.422 108.797 700.627 109.035C700.691 109.108 700.723 109.096 700.723 108.998ZM693.833 117.319C695.313 121.208 700.554 120.287 700.697 116.185C700.764 114.275 701.073 111.999 699.535 110.545C698.115 109.204 695.778 109.407 694.579 110.937C693.171 112.73 693.085 115.357 693.833 117.319Z" fill="white"/>
<path d="M658.086 105.02C659.2 104.989 660.078 104.083 660.048 102.996C660.017 101.909 659.09 101.054 657.976 101.085C656.863 101.116 655.985 102.022 656.015 103.109C656.045 104.196 656.973 105.051 658.086 105.02Z" fill="white"/>
<path d="M571.446 116.185L569.668 122.052C569.664 122.067 569.654 122.08 569.642 122.09C569.629 122.099 569.614 122.104 569.598 122.104L566.358 122.108C566.346 122.108 566.335 122.105 566.325 122.1C566.314 122.095 566.305 122.087 566.298 122.078C566.292 122.068 566.287 122.058 566.285 122.046C566.283 122.035 566.284 122.023 566.288 122.012L572.806 101.773C572.81 101.758 572.82 101.745 572.832 101.736C572.845 101.726 572.86 101.721 572.876 101.721L576.812 101.725C576.828 101.725 576.843 101.73 576.856 101.74C576.868 101.749 576.878 101.762 576.882 101.777L583.431 122.012C583.434 122.023 583.435 122.035 583.433 122.046C583.431 122.058 583.426 122.068 583.42 122.078C583.413 122.087 583.404 122.095 583.393 122.1C583.383 122.105 583.372 122.108 583.36 122.108L580.034 122.106C580.018 122.106 580.003 122.101 579.99 122.092C579.977 122.082 579.968 122.069 579.963 122.054L578.093 116.183C578.088 116.168 578.079 116.154 578.066 116.145C578.054 116.136 578.038 116.131 578.023 116.13L571.517 116.132C571.501 116.133 571.485 116.138 571.473 116.147C571.46 116.156 571.451 116.17 571.446 116.185ZM574.64 104.681C573.92 107.685 573.021 110.581 572.062 113.518C572.058 113.529 572.058 113.54 572.06 113.551C572.061 113.561 572.066 113.571 572.072 113.58C572.079 113.589 572.087 113.596 572.097 113.601C572.106 113.606 572.117 113.609 572.128 113.609L577.351 113.605C577.451 113.605 577.486 113.557 577.455 113.462C576.494 110.577 575.515 107.665 574.819 104.683C574.76 104.431 574.7 104.43 574.64 104.681Z" fill="white"/>
<path d="M606.332 109.94C606.345 112.421 606.349 114.905 606.345 117.391C606.345 117.528 606.4 117.827 606.509 118.288C606.898 119.911 608.309 119.812 609.605 119.573C609.616 119.571 609.627 119.571 609.638 119.574C609.649 119.577 609.659 119.582 609.668 119.589C609.677 119.596 609.684 119.605 609.689 119.615C609.694 119.625 609.697 119.636 609.697 119.648L609.804 121.879C609.806 121.931 609.791 121.983 609.761 122.025C609.73 122.067 609.687 122.097 609.637 122.111C607.33 122.73 604.396 122.611 603.489 119.959C603.273 119.328 603.162 118.522 603.155 117.542C603.137 115.011 603.13 112.484 603.133 109.962C603.133 109.949 603.131 109.937 603.126 109.925C603.121 109.913 603.114 109.902 603.105 109.894C603.096 109.885 603.085 109.877 603.074 109.872C603.062 109.868 603.049 109.865 603.036 109.865L601.105 109.881C601.038 109.883 601.005 109.85 601.005 109.783L601.003 107.502C601.003 107.431 601.039 107.396 601.112 107.396L603.03 107.406C603.104 107.406 603.141 107.368 603.141 107.293L603.127 104.874C603.126 104.833 603.139 104.793 603.164 104.76C603.188 104.727 603.222 104.703 603.261 104.691L606.22 103.785C606.307 103.758 606.351 103.79 606.351 103.881L606.338 107.332C606.338 107.341 606.34 107.35 606.343 107.358C606.347 107.367 606.352 107.375 606.358 107.381C606.365 107.388 606.373 107.393 606.382 107.397C606.39 107.4 606.399 107.402 606.409 107.402L609.866 107.398C609.888 107.397 609.909 107.406 609.925 107.421C609.941 107.437 609.95 107.458 609.95 107.48L609.953 109.75C609.953 109.836 609.91 109.879 609.824 109.877L606.405 109.867C606.386 109.867 606.367 109.875 606.354 109.888C606.34 109.902 606.332 109.92 606.332 109.94Z" fill="white"/>
<path d="M678.092 115.64C678.296 120.425 683.239 120.421 686.553 119.229C686.63 119.201 686.677 119.227 686.694 119.307L687.163 121.367C687.181 121.448 687.151 121.504 687.072 121.533C684.182 122.619 680.049 122.965 677.449 120.862C672.831 117.128 674.712 107.532 681.27 107.086C686.33 106.744 688.574 111.045 687.891 115.479C687.888 115.498 687.878 115.516 687.863 115.529C687.848 115.542 687.828 115.549 687.808 115.549H678.179C678.167 115.549 678.156 115.552 678.145 115.556C678.134 115.561 678.124 115.568 678.116 115.576C678.108 115.585 678.102 115.595 678.098 115.605C678.094 115.616 678.092 115.628 678.092 115.64ZM684.88 113.157C684.956 110.923 683.438 108.91 680.986 109.421C679.285 109.772 678.259 111.496 678.108 113.161C678.108 113.167 678.108 113.173 678.11 113.179C678.112 113.185 678.115 113.191 678.12 113.196C678.124 113.2 678.129 113.204 678.135 113.207C678.142 113.209 678.148 113.211 678.155 113.211L684.822 113.213C684.837 113.213 684.851 113.207 684.862 113.196C684.873 113.186 684.879 113.172 684.88 113.157Z" fill="white"/>
<path d="M632.328 121.701C630.242 120.637 628.953 118.401 628.675 116.135C628.056 111.06 631.181 106.606 636.67 107.133C639.899 107.442 642.174 109.525 642.808 112.773C643.566 116.652 642.035 120.878 638.039 122.123C636.366 122.644 634.029 122.567 632.328 121.701ZM635.725 120.064C636.234 120.067 636.738 119.933 637.21 119.669C637.681 119.405 638.111 119.017 638.474 118.526C638.837 118.035 639.126 117.45 639.325 116.807C639.524 116.163 639.629 115.473 639.634 114.774C639.644 113.364 639.245 112.009 638.526 111.007C637.807 110.005 636.826 109.438 635.8 109.431C635.291 109.427 634.787 109.561 634.315 109.825C633.844 110.089 633.414 110.478 633.051 110.969C632.688 111.46 632.399 112.044 632.2 112.688C632.001 113.332 631.896 114.022 631.891 114.72C631.881 116.13 632.28 117.485 632.999 118.487C633.718 119.49 634.699 120.057 635.725 120.064Z" fill="white"/>
<path d="M648.946 110.104C648.954 110.327 649 110.335 649.085 110.13C649.943 108.061 651.448 106.893 653.752 107.154C653.831 107.162 653.871 107.206 653.871 107.285V110.201C653.871 110.268 653.837 110.297 653.768 110.287C652.294 110.078 650.943 110.307 650.11 111.578C649.334 112.764 649.364 113.909 649.356 115.608C649.345 117.742 649.347 119.869 649.36 121.99C649.36 122.021 649.348 122.05 649.326 122.072C649.304 122.094 649.274 122.107 649.243 122.107H646.221C646.131 122.107 646.086 122.062 646.086 121.974C646.114 117.12 646.217 112.284 646.02 107.472C646.019 107.463 646.021 107.454 646.024 107.445C646.027 107.437 646.032 107.429 646.038 107.422C646.044 107.416 646.052 107.411 646.06 107.407C646.068 107.404 646.077 107.402 646.086 107.402L648.751 107.4C648.818 107.4 648.852 107.433 648.853 107.5L648.946 110.104Z" fill="white"/>
<path d="M668.451 116.382C667.414 115.855 666.348 115.525 665.34 114.936C663.202 113.683 662.482 111.23 663.918 109.177C665.698 106.634 669.626 106.69 672.116 107.929C672.184 107.962 672.207 108.016 672.186 108.089L671.53 110.245C671.513 110.305 671.477 110.319 671.424 110.287C670.189 109.553 667.094 108.745 666.432 110.673C666.07 111.729 666.762 112.469 667.753 112.917C669.187 113.567 670.78 114.013 671.832 115.312C673.32 117.15 672.992 119.939 670.997 121.336C668.91 122.8 665.042 122.742 662.898 121.459C662.833 121.419 662.811 121.362 662.832 121.288L663.46 119.1C663.48 119.028 663.523 119.009 663.588 119.044C664.076 119.303 664.575 119.518 665.085 119.69C666.311 120.102 669.008 120.369 669.511 118.839C669.833 117.854 669.382 116.856 668.451 116.382Z" fill="white"/>
<path d="M595.533 119.962C595.526 119.853 595.492 119.844 595.43 119.935C594.189 121.801 592.436 122.62 590.173 122.393C586.947 122.067 585.783 119.26 585.777 116.386C585.77 113.465 585.768 110.518 585.771 107.543C585.771 107.452 585.816 107.406 585.907 107.406L588.908 107.424C588.943 107.425 588.976 107.439 589.001 107.463C589.025 107.488 589.039 107.521 589.039 107.555C589.041 110.4 589.054 113.242 589.077 116.083C589.093 117.967 589.904 119.825 592.037 119.76C594.33 119.692 595.183 117.84 595.181 115.825C595.177 113.229 595.177 110.483 595.181 107.589C595.181 107.467 595.242 107.406 595.364 107.406L598.312 107.42C598.395 107.42 598.437 107.462 598.437 107.545C598.431 112.355 598.26 117.229 598.574 121.998C598.575 122.013 598.573 122.027 598.568 122.04C598.564 122.054 598.556 122.066 598.547 122.076C598.537 122.087 598.525 122.095 598.512 122.101C598.499 122.106 598.485 122.109 598.471 122.109L595.806 122.105C595.712 122.105 595.663 122.059 595.657 121.966L595.533 119.962Z" fill="white"/>
<path d="M659.586 107.4H656.465C656.421 107.4 656.385 107.436 656.385 107.481V122.027C656.385 122.071 656.421 122.107 656.465 122.107H659.586C659.631 122.107 659.667 122.071 659.667 122.027V107.481C659.667 107.436 659.631 107.4 659.586 107.4Z" fill="white"/>
<path d="M629.68 135.4H626.587C626.535 135.4 626.492 135.443 626.492 135.495V156.721C626.492 156.773 626.535 156.815 626.587 156.815H629.68C629.732 156.815 629.774 156.773 629.774 156.721V135.495C629.774 135.443 629.732 135.4 629.68 135.4Z" fill="white"/>
<path d="M637.068 135.396H633.915C633.878 135.396 633.849 135.426 633.849 135.462V156.748C633.849 156.785 633.878 156.815 633.915 156.815H637.068C637.105 156.815 637.135 156.785 637.135 156.748V135.462C637.135 135.426 637.105 135.396 637.068 135.396Z" fill="white"/>
<path d="M577.139 147.139C578.455 147.832 579.312 148.927 579.709 150.423C580.138 152.043 580.564 153.666 580.986 155.291C581.113 155.779 581.276 156.257 581.475 156.727C581.479 156.737 581.481 156.748 581.48 156.758C581.479 156.769 581.475 156.78 581.469 156.789C581.463 156.798 581.455 156.806 581.446 156.811C581.436 156.816 581.425 156.819 581.414 156.819L578.235 156.813C578.157 156.813 578.101 156.778 578.068 156.708C577.935 156.428 577.827 156.141 577.744 155.848C577.33 154.368 576.956 152.879 576.624 151.38C575.894 148.086 573.915 148.271 571.131 148.289C571.054 148.291 571.015 148.33 571.015 148.408L571.017 156.704C571.017 156.778 570.98 156.815 570.906 156.815H567.857C567.793 156.815 567.761 156.783 567.761 156.718L567.763 136.842C567.763 136.775 567.796 136.735 567.861 136.723C571.799 136.028 580.355 135.276 580.773 141.398C580.847 142.464 580.68 143.43 580.272 144.296C579.731 145.446 578.464 146.719 577.153 147.023C577.14 147.025 577.129 147.032 577.12 147.042C577.112 147.051 577.106 147.063 577.105 147.076C577.103 147.089 577.105 147.102 577.112 147.113C577.118 147.124 577.127 147.133 577.139 147.139ZM576.334 144.891C577.485 143.992 577.766 142.378 577.354 141.069C576.535 138.471 573.245 138.646 571.152 138.951C571.114 138.956 571.08 138.975 571.055 139.003C571.031 139.032 571.017 139.068 571.017 139.106V145.792C571.017 145.811 571.024 145.829 571.037 145.842C571.051 145.855 571.068 145.862 571.087 145.862C572.955 145.822 574.747 146.132 576.334 144.891Z" fill="white"/>
<path d="M586.455 150.362C586.55 155.136 591.596 155.12 594.862 153.973C594.883 153.966 594.905 153.963 594.927 153.965C594.948 153.967 594.97 153.973 594.989 153.984C595.008 153.995 595.025 154.009 595.038 154.027C595.051 154.044 595.06 154.065 595.065 154.086L595.491 156.008C595.505 156.07 595.496 156.135 595.465 156.19C595.434 156.245 595.384 156.287 595.324 156.308C590.142 158.104 583.803 157.15 583.322 150.471C582.994 145.9 585.651 141.444 590.755 141.814C595.123 142.13 596.785 146.252 596.27 150.081C596.252 150.209 596.179 150.274 596.049 150.274L586.546 150.27C586.484 150.27 586.454 150.3 586.455 150.362ZM590.421 144.117C588.07 143.789 586.747 145.83 586.435 147.869C586.427 147.922 586.45 147.949 586.504 147.949H593.124C593.177 147.949 593.204 147.923 593.207 147.871C593.295 146.019 592.368 144.388 590.421 144.117Z" fill="white"/>
<path d="M606.001 156.356C603.98 157.504 600.38 157.381 598.343 156.183C598.277 156.145 598.255 156.09 598.276 156.016L598.892 153.838C598.912 153.767 598.955 153.748 599.021 153.78C599.417 153.969 599.809 154.139 600.195 154.291C601.492 154.799 604.865 155.346 605.046 153.044C605.134 151.924 604.378 151.305 603.391 150.88C602.015 150.289 600.491 149.787 599.475 148.576C597.951 146.756 598.6 143.993 600.537 142.737C602.522 141.446 605.394 141.643 607.496 142.614C607.608 142.666 607.646 142.752 607.61 142.869L606.985 144.939C606.963 145.007 606.92 145.025 606.856 144.993C605.555 144.327 602.645 143.473 601.905 145.3C601.207 147.028 603.347 147.784 604.599 148.26C605.509 148.606 606.387 149.091 607.051 149.787C608.964 151.795 608.431 154.976 606.001 156.356Z" fill="white"/>
<path d="M613.576 150.346C613.555 151.835 614.087 152.978 615.17 153.772C616.98 155.102 620.092 154.641 622.012 153.968C622.083 153.943 622.127 153.968 622.143 154.04L622.602 156.057C622.619 156.13 622.594 156.185 622.527 156.22C622.243 156.368 621.949 156.486 621.646 156.573C617.938 157.623 613.427 157.432 611.347 153.74C609.453 150.376 610.309 145.102 613.624 142.866C615.796 141.4 619.309 141.366 621.316 143.204C623.149 144.883 623.724 147.754 623.338 150.157C623.326 150.234 623.281 150.272 623.205 150.272H613.65C613.602 150.272 613.577 150.297 613.576 150.346ZM618.183 144.268C615.613 143.514 613.789 145.442 613.565 147.855C613.56 147.918 613.588 147.949 613.65 147.949H620.238C620.296 147.949 620.326 147.92 620.327 147.863C620.369 146.425 619.701 144.714 618.183 144.268Z" fill="white"/>
<path d="M643.447 150.378C643.382 152.986 645.446 154.681 648.036 154.611C649.485 154.571 650.775 154.356 651.903 153.967C651.962 153.947 651.999 153.967 652.012 154.028L652.481 156.075C652.498 156.148 652.473 156.201 652.404 156.234C652.147 156.357 651.847 156.467 651.505 156.563C649.092 157.243 646.176 157.416 643.968 156.354C640.579 154.723 639.744 150.758 640.514 147.366C641.341 143.735 644.33 141.39 648.135 141.865C652.284 142.381 653.764 146.548 653.225 150.173C653.214 150.239 653.175 150.272 653.108 150.272L643.557 150.27C643.485 150.27 643.448 150.306 643.447 150.378ZM643.585 147.961L650.214 147.937C650.23 147.937 650.245 147.931 650.257 147.919C650.268 147.908 650.274 147.893 650.274 147.877V147.804C650.271 146.814 649.913 145.865 649.278 145.167C648.644 144.468 647.785 144.078 646.892 144.08H646.884C646.441 144.082 646.003 144.18 645.594 144.369C645.186 144.558 644.815 144.835 644.503 145.183C644.191 145.531 643.945 145.944 643.777 146.398C643.609 146.852 643.523 147.338 643.525 147.829V147.901C643.525 147.917 643.531 147.932 643.543 147.944C643.554 147.955 643.569 147.961 643.585 147.961Z" fill="white"/>
<path d="M659.354 144.871C659.551 144.471 659.734 144.032 659.948 143.715C660.812 142.414 662.421 141.565 664.04 141.895C664.071 141.901 664.098 141.918 664.117 141.941C664.136 141.964 664.147 141.994 664.147 142.024L664.145 144.937C664.145 145.003 664.112 145.03 664.046 145.018C661.08 144.461 659.646 146.538 659.634 149.212C659.62 151.716 659.62 154.22 659.634 156.724C659.634 156.785 659.604 156.815 659.545 156.815H656.452C656.388 156.815 656.356 156.783 656.358 156.718C656.392 150.998 656.49 146.606 656.289 142.245C656.285 142.171 656.321 142.134 656.396 142.134L659.047 142.128C659.071 142.128 659.094 142.137 659.111 142.154C659.129 142.17 659.139 142.193 659.139 142.217L659.22 144.843C659.22 144.859 659.225 144.874 659.235 144.887C659.246 144.899 659.26 144.908 659.276 144.911C659.291 144.914 659.308 144.912 659.322 144.905C659.336 144.898 659.348 144.886 659.354 144.871Z" fill="white"/>
</svg>
