<svg width="207" height="32" viewBox="0 0 207 32" fill="none" xmlns="http://www.w3.org/2000/svg">
<path d="M134.039 4.02148H133.105C133.077 4.02148 133.055 4.04386 133.055 4.07147V27.4114C133.055 27.439 133.077 27.4613 133.105 27.4613H134.039C134.066 27.4613 134.089 27.439 134.089 27.4114V4.07147C134.089 4.04386 134.066 4.02148 134.039 4.02148Z" fill="white"/>
<path d="M153.216 4.37133C153.226 4.36367 153.237 4.35888 153.251 4.35696C153.374 4.33705 153.5 4.32403 153.63 4.3179C153.638 4.31756 153.646 4.32027 153.652 4.32549C153.658 4.3307 153.662 4.33804 153.663 4.34605C153.84 6.02763 152.977 7.81147 151.657 8.83294C150.903 9.41664 149.952 9.79639 148.987 9.73434C148.966 9.73281 148.954 9.72151 148.953 9.70045C148.888 8.89154 149.031 8.12305 149.382 7.39495C150.132 5.84034 151.348 4.8497 153.029 4.42303C153.074 4.41193 153.119 4.40216 153.166 4.39373C153.184 4.39029 153.201 4.38282 153.216 4.37133Z" fill="white"/>
<path d="M18.7738 25.1467C18.7697 25.1549 18.7633 25.1619 18.7555 25.1668C18.7477 25.1716 18.7387 25.1742 18.7296 25.1742L15.6427 25.1731C15.639 25.1732 15.6353 25.1722 15.632 25.1704C15.6288 25.1686 15.626 25.166 15.6241 25.1628C15.6222 25.1596 15.6212 25.1559 15.6211 25.1522C15.621 25.1485 15.622 25.1448 15.6238 25.1415C18.7659 19.3539 21.9064 13.5681 25.0451 7.78394C25.5059 6.93482 26.4147 6.24254 27.4058 6.69181C27.9682 6.94689 28.3772 7.4289 28.6605 7.96319C31.6946 13.6853 34.7269 19.4081 37.7572 25.1317C37.7595 25.1361 37.7606 25.141 37.7604 25.1459C37.7603 25.1508 37.7588 25.1556 37.7563 25.1598C37.7538 25.164 37.7502 25.1675 37.7459 25.1699C37.7417 25.1723 37.7368 25.1736 37.7319 25.1737H34.7169C34.7041 25.1737 34.6916 25.1702 34.6806 25.1635C34.6697 25.1568 34.6608 25.1472 34.6549 25.1358L31.9478 19.8497C31.9407 19.8362 31.93 19.8249 31.917 19.817C31.9039 19.8091 31.889 19.8049 31.8737 19.8049H21.5699C21.5476 19.8049 21.5258 19.8111 21.5068 19.8228C21.4878 19.8345 21.4725 19.8511 21.4625 19.871L18.7738 25.1467ZM23.0114 17.1185C23.0092 17.1227 23.0081 17.1273 23.0082 17.132C23.0084 17.1366 23.0097 17.1412 23.0122 17.1452C23.0146 17.1492 23.018 17.1525 23.0221 17.1548C23.0262 17.157 23.0308 17.1582 23.0355 17.1582L30.5247 17.1593C30.5295 17.1593 30.5341 17.1581 30.5382 17.1557C30.5423 17.1534 30.5457 17.15 30.5481 17.146C30.5504 17.1419 30.5517 17.1373 30.5518 17.1326C30.5518 17.1278 30.5506 17.1232 30.5483 17.1191L26.779 10.2388C26.7766 10.2346 26.7732 10.2311 26.7691 10.2287C26.7649 10.2263 26.7602 10.225 26.7554 10.225C26.7506 10.225 26.7459 10.2263 26.7418 10.2287C26.7376 10.2311 26.7342 10.2346 26.7319 10.2388L23.0114 17.1185Z" fill="white"/>
<path d="M99.1638 19.833C99.1594 19.8245 99.1528 19.8174 99.1447 19.8125C99.1366 19.8075 99.1273 19.8049 99.1178 19.8049H88.7652C88.752 19.8049 88.7392 19.8085 88.728 19.8153C88.7169 19.8221 88.7078 19.8318 88.702 19.8433L86.0053 25.1351C85.9919 25.1608 85.9708 25.1736 85.9421 25.1736H82.861C82.858 25.1736 82.855 25.1728 82.8524 25.1713C82.8497 25.1698 82.8476 25.1676 82.8461 25.165C82.8445 25.1624 82.8438 25.1594 82.8438 25.1564C82.8437 25.1534 82.8445 25.1504 82.8461 25.1478C85.8829 19.5536 88.9199 13.9581 91.9572 8.36126C92.3449 7.64773 92.7109 6.91293 93.5336 6.6297C93.8726 6.51289 94.2084 6.52074 94.5413 6.65326C95.2359 6.92959 95.6518 7.50697 95.989 8.14468C98.9895 13.812 101.988 19.4766 104.985 25.1386C104.987 25.1422 104.988 25.1463 104.988 25.1504C104.988 25.1545 104.986 25.1585 104.984 25.162C104.982 25.1655 104.979 25.1684 104.976 25.1705C104.972 25.1725 104.968 25.1736 104.964 25.1736H101.931C101.91 25.1736 101.895 25.1646 101.886 25.1466L99.1638 19.833ZM90.2371 17.1173C90.2348 17.1216 90.2336 17.1263 90.2337 17.1311C90.2338 17.136 90.2352 17.1407 90.2377 17.1448C90.2402 17.1489 90.2437 17.1523 90.248 17.1547C90.2522 17.157 90.257 17.1582 90.2618 17.1581L97.7482 17.1587C97.753 17.1587 97.7576 17.1574 97.7618 17.155C97.7659 17.1527 97.7694 17.1493 97.7718 17.1451C97.7743 17.141 97.7756 17.1364 97.7757 17.1316C97.7758 17.1268 97.7746 17.1221 97.7723 17.1179L94.0053 10.2388C94.0028 10.2345 93.9993 10.2309 93.995 10.2285C93.9907 10.226 93.9859 10.2248 93.981 10.2248C93.976 10.2249 93.9712 10.2262 93.967 10.2288C93.9628 10.2314 93.9593 10.235 93.957 10.2393L90.2371 17.1173Z" fill="white"/>
<path d="M122.631 19.8049H112.273C112.262 19.8049 112.251 19.808 112.241 19.8139C112.232 19.8198 112.224 19.8282 112.219 19.8382L109.519 25.1334C109.513 25.1455 109.504 25.1557 109.492 25.1628C109.481 25.1699 109.467 25.1736 109.454 25.1737H106.376C106.356 25.1737 106.35 25.1647 106.36 25.1467C109.472 19.415 112.579 13.6902 115.682 7.97236C115.992 7.4013 116.397 6.86012 117.003 6.63893C118.059 6.25344 118.975 7.15082 119.42 7.9919C122.45 13.714 125.48 19.4361 128.51 25.1581C128.511 25.1598 128.512 25.1617 128.511 25.1636C128.511 25.1655 128.511 25.1674 128.51 25.169C128.509 25.1706 128.507 25.1719 128.506 25.1729C128.504 25.1738 128.502 25.1743 128.5 25.1742L125.44 25.1737C125.432 25.1737 125.424 25.1714 125.417 25.1671C125.41 25.1629 125.405 25.1568 125.401 25.1495L122.678 19.8336C122.674 19.825 122.667 19.8177 122.659 19.8126C122.65 19.8076 122.641 19.8049 122.631 19.8049ZM113.747 17.1248C113.745 17.1282 113.744 17.1321 113.744 17.136C113.744 17.1399 113.745 17.1437 113.747 17.1471C113.749 17.1504 113.752 17.1532 113.755 17.1552C113.759 17.1571 113.763 17.1581 113.767 17.1581L121.271 17.1593C121.275 17.1593 121.279 17.1583 121.282 17.1563C121.285 17.1544 121.288 17.1516 121.29 17.1482C121.292 17.1449 121.293 17.141 121.293 17.1371C121.293 17.1332 121.292 17.1294 121.29 17.126L117.514 10.2307C117.512 10.2273 117.509 10.2244 117.506 10.2224C117.502 10.2204 117.499 10.2193 117.495 10.2193C117.491 10.2193 117.487 10.2204 117.483 10.2224C117.48 10.2244 117.477 10.2273 117.475 10.2307L113.747 17.1248Z" fill="white"/>
<path d="M43.164 21.3389L46.4754 15.2543C46.4854 15.2359 46.4852 15.2175 46.4748 15.1991L41.8121 6.66428C41.7961 6.63479 41.8049 6.62005 41.8386 6.62005L44.7852 6.6189C44.8021 6.61887 44.8187 6.62345 44.8332 6.63214C44.8478 6.64084 44.8598 6.65333 44.8679 6.6683L52.8231 21.3136C52.8404 21.3454 52.8578 21.3456 52.8754 21.3142L61.0736 6.65222C61.079 6.64249 61.0869 6.63438 61.0965 6.62872C61.1061 6.62307 61.1171 6.62007 61.1282 6.62005L64.1248 6.61947C64.1277 6.61939 64.1305 6.62008 64.133 6.62146C64.1355 6.62284 64.1376 6.62487 64.1391 6.62732C64.1405 6.62978 64.1413 6.63259 64.1413 6.63545C64.1414 6.63831 64.1406 6.64112 64.1392 6.6436C60.8825 12.4649 57.6258 18.2852 54.3691 24.1046C54.0744 24.6308 53.5424 25.5345 52.8191 25.5046C51.9625 25.4684 51.3001 24.1063 50.9497 23.4594C50.0059 21.7198 49.0617 19.9806 48.1168 18.2417C48.0907 18.1942 48.0687 18.1494 48.0507 18.1073C48.048 18.1009 48.0436 18.0955 48.038 18.0915C48.0323 18.0875 48.0256 18.0852 48.0188 18.0849C48.0119 18.0845 48.005 18.0861 47.999 18.0895C47.9929 18.0928 47.988 18.0978 47.9846 18.1039C46.8061 20.1801 45.6307 22.2527 44.4583 24.3217C44.136 24.8893 43.739 25.5523 42.9985 25.5035C42.2993 25.4575 41.9288 24.8037 41.6346 24.2649C38.4323 18.3946 35.2293 12.5212 32.0254 6.64475C32.0241 6.64215 32.0234 6.63923 32.0234 6.63629C32.0235 6.63335 32.0243 6.63047 32.0258 6.62794C32.0273 6.6254 32.0295 6.62329 32.032 6.62181C32.0345 6.62033 32.0374 6.61952 32.0404 6.61947H35.0203C35.028 6.61949 35.0355 6.62159 35.0421 6.62553C35.0487 6.62947 35.054 6.63512 35.0577 6.64188L43.0876 21.3389C43.1128 21.3856 43.1383 21.3856 43.164 21.3389Z" fill="white"/>
<path d="M11.498 21.1205C12.8509 19.9192 12.9474 18.1377 12.9451 16.4595C12.9402 13.1841 12.9375 9.91054 12.9371 6.63892C12.9371 6.6259 12.9436 6.61938 12.9566 6.61938L15.5678 6.62111C15.5793 6.62111 15.585 6.62685 15.585 6.63834C15.5869 10.116 15.5879 13.5956 15.5879 17.0771C15.5879 18.5973 15.3012 20.2024 14.5733 21.5393C12.8279 24.7428 9.05171 25.1679 5.8316 25.1782C4.96793 25.1813 4.10789 25.1821 3.2515 25.1805C3.24281 25.1805 3.23448 25.177 3.22834 25.1708C3.2222 25.1645 3.21875 25.156 3.21875 25.1472V22.5677C3.21875 22.5328 3.23618 22.5154 3.27103 22.5154C4.90263 22.5263 6.58363 22.5774 8.21581 22.4166C9.4418 22.2954 10.581 21.9351 11.498 21.1205Z" fill="white"/>
<path d="M57.813 6.65341L52.9802 16.5171C52.9785 16.5205 52.9759 16.5233 52.9726 16.5253C52.9694 16.5273 52.9657 16.5283 52.9619 16.5283C52.9581 16.5283 52.9543 16.5273 52.9511 16.5253C52.9478 16.5233 52.9452 16.5205 52.9435 16.5171L48.1193 6.65341C48.1178 6.65023 48.117 6.64669 48.1172 6.64314C48.1174 6.63958 48.1185 6.63614 48.1204 6.63314C48.1223 6.63013 48.125 6.62767 48.1281 6.62599C48.1312 6.62431 48.1347 6.62347 48.1383 6.62354H57.794C57.7976 6.62347 57.8011 6.62431 57.8042 6.62599C57.8074 6.62767 57.81 6.63013 57.8119 6.63314C57.8138 6.63614 57.8149 6.63958 57.8151 6.64314C57.8153 6.64669 57.8146 6.65023 57.813 6.65341Z" fill="#FFCB08"/>
<path d="M75.9751 19.6671L81.4817 25.1381C81.5101 25.1664 81.5041 25.1806 81.4639 25.1806L77.821 25.1795C77.7946 25.1795 77.7685 25.1742 77.7441 25.1641C77.7198 25.1539 77.6977 25.139 77.6791 25.1203L72.3115 19.7107C72.2901 19.6894 72.2612 19.6774 72.231 19.6774L68.1383 19.678C68.1309 19.678 68.1239 19.6809 68.1188 19.6861C68.1136 19.6912 68.1107 19.6983 68.1107 19.7056V25.1421C68.1107 25.1674 68.0982 25.18 68.0733 25.18L65.4674 25.1795C65.4595 25.1795 65.4519 25.1763 65.4463 25.1707C65.4406 25.1651 65.4375 25.1575 65.4375 25.1496V6.65049C65.4375 6.63172 65.4469 6.62234 65.4657 6.62234C69.5875 6.61545 72.8576 6.61487 75.2759 6.62062C77.5125 6.62636 79.6313 7.78399 80.8004 9.67124C83.3426 13.7761 80.7665 19.0593 75.9906 19.6211C75.9856 19.6218 75.9809 19.6238 75.977 19.627C75.9731 19.6302 75.9701 19.6345 75.9685 19.6393C75.9669 19.644 75.9667 19.6492 75.9678 19.6541C75.969 19.659 75.9715 19.6635 75.9751 19.6671ZM68.1216 9.32424V16.9583C68.1216 16.9682 68.1255 16.9777 68.1325 16.9847C68.1395 16.9917 68.149 16.9956 68.1589 16.9956H75.2708C76.2883 16.9956 77.2641 16.5963 77.9836 15.8854C78.7031 15.1745 79.1073 14.2104 79.1073 13.205V13.0775C79.1073 12.0722 78.7031 11.108 77.9836 10.3971C77.2641 9.68627 76.2883 9.2869 75.2708 9.2869H68.1589C68.149 9.2869 68.1395 9.29083 68.1325 9.29784C68.1255 9.30484 68.1216 9.31434 68.1216 9.32424Z" fill="white"/>
<path d="M144.538 27.5154C143.415 26.9863 142.563 25.735 141.9 24.752C140.524 22.7114 139.692 20.287 139.481 17.8378C139.187 14.4419 140.699 10.9616 144.287 10.1561C145.073 9.97975 145.928 10.0315 146.715 10.2946C147.375 10.5146 147.958 10.7726 148.593 10.9771C149.173 11.1644 149.632 11.0156 150.169 10.8024C151.228 10.3831 152.284 9.95045 153.449 9.9832C155.235 10.0326 156.868 10.8191 157.902 12.291C157.905 12.2948 157.906 12.2991 157.907 12.3037C157.908 12.3082 157.908 12.3129 157.907 12.3175C157.907 12.3221 157.905 12.3264 157.902 12.3302C157.899 12.3341 157.896 12.3373 157.892 12.3398C156.272 13.3768 155.268 15.1176 155.395 17.0916C155.514 18.9294 156.54 20.4794 158.168 21.3308C158.281 21.3898 158.394 21.4498 158.506 21.5107C158.523 21.5199 158.528 21.5335 158.522 21.5515C157.968 23.2508 157.129 24.6526 156.07 26.0148C155.674 26.5255 155.218 27.0001 154.661 27.3362C153.88 27.8084 152.916 27.8325 152.084 27.5229C151.654 27.362 151.121 27.0977 150.694 26.9748C149.687 26.686 148.686 26.7448 147.693 27.1512C146.991 27.4384 146.323 27.7567 145.548 27.7464C145.192 27.7414 144.855 27.6644 144.538 27.5154Z" fill="white"/>
<path d="M175.983 13.243C175.983 13.2478 175.985 13.2526 175.988 13.2565C175.991 13.2604 175.995 13.2632 176 13.2646C176.004 13.266 176.009 13.2658 176.014 13.264C176.018 13.2623 176.022 13.2591 176.025 13.255C176.322 12.7985 176.754 12.5825 177.321 12.607C178.258 12.6478 178.682 13.4452 178.687 14.2909C178.692 15.1461 178.693 16.0015 178.69 16.8572C178.69 16.8779 178.68 16.8882 178.659 16.8882H177.78C177.773 16.8882 177.766 16.8852 177.76 16.8798C177.755 16.8744 177.752 16.8671 177.752 16.8595C177.756 16.0617 177.76 15.2629 177.763 14.4632C177.764 14.1805 177.712 13.9377 177.606 13.7347C177.347 13.2407 176.61 13.2694 176.248 13.6353C176.071 13.8146 175.983 14.0283 175.983 14.2765C175.986 15.1379 175.986 15.9992 175.983 16.8606C175.983 16.879 175.974 16.8882 175.956 16.8882L175.068 16.8876C175.061 16.8876 175.055 16.885 175.05 16.8804C175.046 16.8758 175.043 16.8695 175.043 16.8629V10.7967C175.043 10.7779 175.052 10.7686 175.071 10.7686H175.955C175.975 10.7686 175.985 10.7787 175.985 10.799L175.983 13.243Z" fill="white"/>
<path d="M200.17 13.1424L200.168 10.8013C200.168 10.7795 200.178 10.7686 200.2 10.7686H201.06C201.087 10.7686 201.101 10.7822 201.101 10.8093C201.101 12.6608 201.106 14.5107 201.116 16.3591C201.117 16.5127 201.12 16.6774 201.127 16.8532C201.127 16.8578 201.126 16.8624 201.125 16.8667C201.123 16.871 201.12 16.8749 201.117 16.8783C201.114 16.8816 201.11 16.8842 201.106 16.886C201.102 16.8878 201.097 16.8888 201.092 16.8888L200.328 16.8882C200.322 16.8882 200.316 16.8859 200.312 16.8819C200.308 16.8778 200.305 16.8723 200.305 16.8664L200.27 16.301C200.264 16.1957 200.237 16.1902 200.189 16.2844C199.796 17.0663 198.658 17.1553 198.006 16.7308C197.171 16.1861 196.998 15.0245 197.213 14.1041C197.296 13.7506 197.46 13.44 197.704 13.1723C198.105 12.7322 198.617 12.5488 199.238 12.6219C199.531 12.656 199.776 12.7644 199.974 12.9471C200.031 12.9994 200.084 13.085 200.142 13.1528C200.161 13.1738 200.17 13.1704 200.17 13.1424ZM198.202 15.5197C198.624 16.6308 200.122 16.3677 200.162 15.1957C200.181 14.6499 200.27 13.9996 199.83 13.5842C199.425 13.201 198.757 13.259 198.415 13.6962C198.013 14.2087 197.988 14.959 198.202 15.5197Z" fill="white"/>
<path d="M187.99 12.0058C188.308 11.9969 188.559 11.738 188.551 11.4275C188.542 11.117 188.277 10.8725 187.959 10.8814C187.641 10.8903 187.39 11.1492 187.399 11.4597C187.407 11.7702 187.672 12.0147 187.99 12.0058Z" fill="white"/>
<path d="M163.24 15.1957L162.732 16.8721C162.731 16.8764 162.728 16.8801 162.725 16.8828C162.721 16.8855 162.717 16.887 162.712 16.887L161.787 16.8882C161.783 16.8881 161.78 16.8873 161.777 16.8858C161.774 16.8843 161.772 16.8821 161.77 16.8794C161.768 16.8767 161.766 16.8736 161.766 16.8704C161.765 16.8671 161.766 16.8637 161.767 16.8606L163.629 11.0782C163.63 11.0739 163.633 11.0701 163.636 11.0674C163.64 11.0647 163.644 11.0633 163.649 11.0632L164.773 11.0644C164.777 11.0644 164.782 11.0659 164.785 11.0686C164.789 11.0713 164.792 11.075 164.793 11.0793L166.664 16.8606C166.665 16.8637 166.665 16.8671 166.664 16.8704C166.664 16.8736 166.663 16.8767 166.661 16.8794C166.659 16.8821 166.656 16.8843 166.653 16.8858C166.65 16.8873 166.647 16.8881 166.644 16.8882L165.693 16.8876C165.689 16.8875 165.684 16.8861 165.681 16.8834C165.677 16.8807 165.675 16.8769 165.673 16.8726L165.139 15.1951C165.138 15.1908 165.135 15.187 165.131 15.1843C165.128 15.1817 165.123 15.1802 165.119 15.1801L163.26 15.1807C163.256 15.1808 163.251 15.1822 163.248 15.1849C163.244 15.1876 163.242 15.1914 163.24 15.1957ZM164.153 11.9089C163.947 12.7672 163.69 13.5945 163.416 14.4339C163.415 14.4368 163.415 14.44 163.415 14.443C163.416 14.4461 163.417 14.449 163.419 14.4515C163.421 14.454 163.423 14.456 163.426 14.4575C163.429 14.4589 163.432 14.4597 163.435 14.4597L164.927 14.4586C164.956 14.4586 164.966 14.445 164.957 14.4178C164.682 13.5934 164.402 12.7615 164.204 11.9095C164.187 11.8375 164.17 11.8373 164.153 11.9089Z" fill="white"/>
<path d="M173.206 13.4113C173.209 14.1203 173.211 14.83 173.209 15.5404C173.209 15.5795 173.225 15.6649 173.257 15.7967C173.367 16.2603 173.771 16.2321 174.141 16.1638C174.144 16.1632 174.147 16.1633 174.15 16.1641C174.153 16.1649 174.156 16.1663 174.159 16.1684C174.161 16.1704 174.163 16.1729 174.165 16.1758C174.166 16.1787 174.167 16.1818 174.167 16.185L174.198 16.8227C174.198 16.8376 174.194 16.8522 174.185 16.8642C174.177 16.8762 174.164 16.8849 174.15 16.8888C173.491 17.0658 172.653 17.0319 172.394 16.2741C172.332 16.0937 172.3 15.8635 172.298 15.5835C172.293 14.8604 172.291 14.1385 172.292 13.4176C172.292 13.414 172.291 13.4105 172.29 13.4071C172.289 13.4038 172.287 13.4007 172.284 13.3982C172.282 13.3956 172.278 13.3936 172.275 13.3922C172.272 13.3908 172.268 13.3901 172.264 13.3901L171.713 13.3947C171.694 13.395 171.684 13.3857 171.684 13.3665L171.684 12.715C171.684 12.6947 171.694 12.6846 171.715 12.6846L172.263 12.6874C172.284 12.6874 172.294 12.6767 172.294 12.6553L172.29 11.9641C172.29 11.9524 172.294 11.9409 172.301 11.9314C172.308 11.922 172.318 11.9151 172.329 11.9119L173.174 11.6528C173.199 11.6451 173.211 11.6543 173.211 11.6803L173.208 12.6662C173.208 12.6688 173.208 12.6714 173.209 12.6738C173.21 12.6763 173.212 12.6785 173.213 12.6804C173.215 12.6822 173.218 12.6837 173.22 12.6848C173.223 12.6858 173.225 12.6863 173.228 12.6863L174.215 12.6851C174.222 12.685 174.228 12.6874 174.232 12.6918C174.237 12.6962 174.239 12.7023 174.24 12.7087L174.24 13.3573C174.24 13.3818 174.228 13.3939 174.203 13.3935L173.227 13.3906C173.221 13.3906 173.216 13.3928 173.212 13.3967C173.208 13.4006 173.206 13.4058 173.206 13.4113Z" fill="white"/>
<path d="M193.705 15.04C193.763 16.4073 195.175 16.4062 196.122 16.0655C196.144 16.0574 196.157 16.0649 196.162 16.0879L196.296 16.6762C196.301 16.6995 196.293 16.7154 196.27 16.7239C195.445 17.0341 194.264 17.1329 193.521 16.532C192.202 15.4651 192.739 12.7236 194.613 12.596C196.058 12.4984 196.699 13.7272 196.504 14.994C196.503 14.9996 196.5 15.0046 196.496 15.0083C196.492 15.012 196.486 15.0141 196.481 15.0141H193.73C193.726 15.0141 193.723 15.0148 193.72 15.0161C193.717 15.0174 193.714 15.0194 193.712 15.0218C193.71 15.0242 193.708 15.027 193.707 15.0302C193.705 15.0333 193.705 15.0366 193.705 15.04ZM195.644 14.3305C195.666 13.6922 195.232 13.1171 194.532 13.263C194.046 13.3636 193.753 13.8559 193.71 14.3316C193.709 14.3334 193.71 14.3352 193.71 14.337C193.711 14.3387 193.712 14.3403 193.713 14.3417C193.714 14.343 193.716 14.3441 193.717 14.3449C193.719 14.3456 193.721 14.346 193.723 14.346L195.627 14.3466C195.632 14.3466 195.636 14.3449 195.639 14.3419C195.642 14.3389 195.644 14.3348 195.644 14.3305Z" fill="white"/>
<path d="M180.632 16.7716C180.036 16.4677 179.668 15.8288 179.589 15.1814C179.412 13.7313 180.304 12.4588 181.872 12.6093C182.795 12.6978 183.445 13.293 183.626 14.2208C183.842 15.329 183.405 16.5366 182.263 16.8922C181.786 17.041 181.118 17.0192 180.632 16.7716ZM181.603 16.3039C181.748 16.3049 181.892 16.2666 182.027 16.1912C182.161 16.1158 182.284 16.0048 182.388 15.8645C182.491 15.7241 182.574 15.5573 182.631 15.3734C182.688 15.1895 182.718 14.9921 182.719 14.7927C182.722 14.3898 182.608 14.0027 182.403 13.7163C182.197 13.43 181.917 13.268 181.624 13.266C181.479 13.265 181.334 13.3033 181.2 13.3787C181.065 13.4541 180.942 13.5651 180.839 13.7054C180.735 13.8458 180.652 14.0126 180.595 14.1965C180.539 14.3804 180.509 14.5778 180.507 14.7772C180.504 15.1801 180.618 15.5673 180.824 15.8536C181.029 16.1399 181.309 16.3019 181.603 16.3039Z" fill="white"/>
<path d="M185.379 13.4584C185.381 13.522 185.394 13.5245 185.419 13.4659C185.664 12.8747 186.094 12.5409 186.752 12.6156C186.775 12.6179 186.786 12.6303 186.786 12.6529V13.486C186.786 13.5051 186.776 13.5133 186.757 13.5107C186.335 13.4509 185.949 13.5164 185.712 13.8795C185.49 14.2185 185.498 14.5454 185.496 15.0308C185.493 15.6406 185.493 16.2484 185.497 16.8543C185.497 16.8631 185.494 16.8716 185.487 16.8779C185.481 16.8841 185.473 16.8876 185.464 16.8876H184.6C184.575 16.8876 184.562 16.875 184.562 16.8497C184.57 15.4628 184.599 14.0812 184.543 12.7064C184.543 12.7037 184.543 12.7011 184.544 12.6987C184.545 12.6963 184.547 12.694 184.548 12.6922C184.55 12.6903 184.552 12.6888 184.555 12.6878C184.557 12.6868 184.559 12.6862 184.562 12.6862L185.323 12.6857C185.342 12.6857 185.352 12.6952 185.352 12.7144L185.379 13.4584Z" fill="white"/>
<path d="M190.951 15.252C190.655 15.1014 190.35 15.0072 190.062 14.8389C189.452 14.481 189.246 13.7801 189.656 13.1935C190.165 12.4668 191.287 12.4828 191.998 12.8367C192.017 12.8463 192.024 12.8616 192.018 12.8827L191.831 13.4986C191.826 13.5158 191.816 13.5198 191.8 13.5106C191.448 13.3009 190.563 13.07 190.374 13.6209C190.271 13.9226 190.469 14.134 190.752 14.2621C191.161 14.4477 191.616 14.5752 191.917 14.9463C192.342 15.4714 192.248 16.2683 191.679 16.6676C191.082 17.0858 189.977 17.0691 189.365 16.7026C189.346 16.6911 189.34 16.6748 189.346 16.6538L189.525 16.0287C189.531 16.008 189.543 16.0027 189.562 16.0126C189.701 16.0865 189.844 16.148 189.989 16.197C190.34 16.3148 191.11 16.3912 191.254 15.954C191.346 15.6725 191.217 15.3876 190.951 15.252Z" fill="white"/>
<path d="M170.121 16.2747C170.119 16.2437 170.109 16.2412 170.092 16.2672C169.737 16.8004 169.236 17.0344 168.59 16.9693C167.668 16.8762 167.336 16.0742 167.334 15.2532C167.332 14.4187 167.332 13.5765 167.332 12.7266C167.332 12.7005 167.345 12.6875 167.371 12.6875L168.229 12.6927C168.239 12.6928 168.248 12.6968 168.255 12.7038C168.262 12.7108 168.266 12.7202 168.266 12.73C168.267 13.5427 168.27 14.3549 168.277 15.1665C168.281 15.7048 168.513 16.2357 169.123 16.2173C169.777 16.1977 170.021 15.6686 170.02 15.093C170.019 14.3511 170.019 13.5667 170.02 12.7398C170.02 12.7049 170.038 12.6875 170.073 12.6875L170.915 12.6915C170.939 12.6915 170.951 12.7034 170.951 12.7271C170.949 14.1014 170.9 15.494 170.99 16.8567C170.99 16.8607 170.989 16.8648 170.988 16.8686C170.987 16.8724 170.985 16.8759 170.982 16.8789C170.979 16.8819 170.976 16.8842 170.972 16.8859C170.968 16.8875 170.964 16.8883 170.96 16.8883L170.199 16.8871C170.172 16.8871 170.158 16.8739 170.157 16.8475L170.121 16.2747Z" fill="white"/>
<path d="M188.419 12.6858H187.527C187.514 12.6858 187.504 12.6961 187.504 12.7088V16.8647C187.504 16.8774 187.514 16.8877 187.527 16.8877H188.419C188.431 16.8877 188.442 16.8774 188.442 16.8647V12.7088C188.442 12.6961 188.431 12.6858 188.419 12.6858Z" fill="white"/>
<path d="M179.875 20.6858H178.992C178.977 20.6858 178.965 20.6979 178.965 20.7128V26.7773C178.965 26.7922 178.977 26.8043 178.992 26.8043H179.875C179.89 26.8043 179.902 26.7922 179.902 26.7773V20.7128C179.902 20.6979 179.89 20.6858 179.875 20.6858Z" fill="white"/>
<path d="M181.986 20.6846H181.085C181.075 20.6846 181.066 20.6931 181.066 20.7035V26.7853C181.066 26.7957 181.075 26.8042 181.085 26.8042H181.986C181.997 26.8042 182.005 26.7957 182.005 26.7853V20.7035C182.005 20.6931 181.997 20.6846 181.986 20.6846Z" fill="white"/>
<path d="M164.866 24.0397C165.243 24.2377 165.487 24.5505 165.601 24.9779C165.723 25.4409 165.845 25.9046 165.965 26.3688C166.002 26.5082 166.048 26.6449 166.105 26.779C166.106 26.7818 166.107 26.785 166.107 26.7881C166.106 26.7912 166.105 26.7942 166.104 26.7968C166.102 26.7994 166.099 26.8016 166.097 26.8031C166.094 26.8046 166.091 26.8054 166.088 26.8054L165.18 26.8037C165.157 26.8037 165.141 26.7937 165.132 26.7738C165.094 26.6938 165.063 26.6118 165.039 26.5279C164.921 26.1051 164.814 25.6796 164.719 25.2514C164.511 24.3103 163.945 24.3632 163.15 24.3683C163.128 24.3687 163.117 24.38 163.117 24.4022L163.118 26.7727C163.118 26.7937 163.107 26.8043 163.086 26.8043H162.215C162.197 26.8043 162.188 26.7951 162.188 26.7767L162.188 21.0977C162.188 21.0785 162.197 21.0672 162.216 21.0638C163.341 20.865 165.785 20.6501 165.905 22.3995C165.926 22.704 165.878 22.98 165.762 23.2274C165.607 23.556 165.245 23.9197 164.87 24.0064C164.867 24.0072 164.864 24.0091 164.861 24.0118C164.859 24.0146 164.857 24.018 164.857 24.0216C164.856 24.0253 164.857 24.029 164.859 24.0322C164.86 24.0355 164.863 24.0381 164.866 24.0397ZM164.637 23.3974C164.965 23.1406 165.046 22.6793 164.928 22.3053C164.694 21.563 163.754 21.613 163.156 21.7003C163.145 21.7017 163.136 21.707 163.129 21.7151C163.122 21.7233 163.118 21.7337 163.118 21.7446V23.6548C163.118 23.6601 163.12 23.6653 163.124 23.669C163.127 23.6728 163.132 23.6749 163.138 23.6749C163.671 23.6634 164.183 23.7519 164.637 23.3974Z" fill="white"/>
<path d="M167.528 24.9606C167.555 26.3245 168.996 26.3199 169.929 25.9924C169.935 25.9903 169.941 25.9895 169.948 25.99C169.954 25.9905 169.96 25.9924 169.966 25.9954C169.971 25.9984 169.976 26.0026 169.98 26.0076C169.983 26.0127 169.986 26.0184 169.987 26.0246L170.109 26.5738C170.113 26.5914 170.11 26.6099 170.102 26.6257C170.093 26.6415 170.078 26.6535 170.061 26.6594C168.581 27.1724 166.77 26.9001 166.633 24.9916C166.539 23.6858 167.298 22.4127 168.756 22.5184C170.004 22.6086 170.478 23.7863 170.331 24.8802C170.326 24.9169 170.305 24.9353 170.268 24.9353L167.554 24.9342C167.536 24.9342 167.527 24.943 167.528 24.9606ZM168.661 23.1762C167.989 23.0825 167.611 23.6657 167.522 24.2482C167.52 24.2635 167.526 24.2712 167.542 24.2712H169.433C169.448 24.2712 169.456 24.2637 169.456 24.2488C169.482 23.7197 169.217 23.2537 168.661 23.1762Z" fill="white"/>
<path d="M173.111 26.6731C172.534 27.0011 171.506 26.9661 170.924 26.6237C170.905 26.6129 170.898 26.597 170.905 26.576L171.08 25.9538C171.086 25.9335 171.098 25.9279 171.117 25.9371C171.231 25.9911 171.342 26.0398 171.453 26.083C171.823 26.2284 172.787 26.3847 172.838 25.7268C172.864 25.4068 172.648 25.2299 172.366 25.1087C171.973 24.9398 171.537 24.7961 171.247 24.4503C170.812 23.9304 170.997 23.141 171.55 22.7819C172.117 22.4131 172.938 22.4694 173.538 22.7469C173.57 22.7618 173.581 22.7861 173.571 22.8198L173.392 23.411C173.386 23.4305 173.374 23.4357 173.355 23.4265C172.984 23.2364 172.152 22.9922 171.941 23.5144C171.742 24.0079 172.353 24.2239 172.711 24.3601C172.971 24.4589 173.222 24.5974 173.411 24.7961C173.958 25.3701 173.805 26.279 173.111 26.6731Z" fill="white"/>
<path d="M175.275 24.9561C175.269 25.3816 175.421 25.7079 175.731 25.935C176.248 26.3148 177.136 26.1832 177.685 25.9908C177.705 25.9839 177.718 25.9908 177.722 26.0114L177.853 26.5877C177.858 26.6087 177.851 26.6242 177.832 26.6342C177.751 26.6767 177.667 26.7104 177.581 26.7353C176.521 27.0352 175.233 26.9806 174.638 25.9258C174.097 24.9647 174.342 23.4578 175.289 22.8189C175.909 22.4001 176.913 22.3903 177.486 22.9154C178.01 23.3951 178.174 24.2155 178.064 24.9021C178.06 24.9239 178.048 24.9348 178.026 24.9348H175.296C175.283 24.9348 175.275 24.9419 175.275 24.9561ZM176.591 23.2193C175.857 23.0039 175.336 23.5549 175.272 24.2443C175.271 24.2623 175.279 24.2713 175.296 24.2713H177.178C177.195 24.2713 177.203 24.263 177.204 24.2466C177.216 23.8358 177.025 23.3469 176.591 23.2193Z" fill="white"/>
<path d="M183.808 24.9652C183.79 25.7104 184.379 26.1947 185.119 26.1746C185.533 26.1631 185.901 26.1018 186.224 25.9907C186.241 25.985 186.251 25.9907 186.255 26.008L186.389 26.5928C186.394 26.6139 186.386 26.629 186.367 26.6382C186.293 26.6734 186.208 26.7048 186.11 26.7324C185.421 26.9266 184.588 26.976 183.957 26.6727C182.989 26.2067 182.75 25.0738 182.97 24.1046C183.206 23.0671 184.06 22.3972 185.147 22.5328C186.332 22.6804 186.755 23.8708 186.601 24.9066C186.598 24.9254 186.587 24.9348 186.568 24.9348L183.84 24.9342C183.819 24.9342 183.808 24.9445 183.808 24.9652ZM183.848 24.2747L185.741 24.2678C185.746 24.2678 185.75 24.266 185.753 24.2627C185.757 24.2595 185.758 24.2551 185.758 24.2505V24.2299C185.757 23.9468 185.655 23.6757 185.474 23.4762C185.293 23.2767 185.047 23.1651 184.792 23.1659H184.79C184.663 23.1663 184.538 23.1943 184.422 23.2483C184.305 23.3024 184.199 23.3814 184.11 23.4808C184.021 23.5803 183.95 23.6982 183.902 23.8279C183.854 23.9576 183.83 24.0965 183.83 24.2368V24.2574C183.83 24.262 183.832 24.2664 183.835 24.2696C183.839 24.2729 183.843 24.2747 183.848 24.2747Z" fill="white"/>
<path d="M188.352 23.3917C188.408 23.2773 188.461 23.1521 188.522 23.0613C188.769 22.6896 189.228 22.4472 189.691 22.5414C189.699 22.5432 189.707 22.5479 189.713 22.5546C189.718 22.5613 189.721 22.5696 189.721 22.5782L189.721 23.4106C189.721 23.4294 189.711 23.437 189.693 23.4336C188.845 23.2745 188.435 23.8679 188.432 24.632C188.428 25.3475 188.428 26.0629 188.432 26.7784C188.432 26.7956 188.424 26.8042 188.407 26.8042H187.523C187.505 26.8042 187.496 26.795 187.496 26.7766C187.506 25.1422 187.534 23.8875 187.477 22.6413C187.476 22.6203 187.486 22.6097 187.507 22.6097L188.264 22.608C188.271 22.608 188.278 22.6107 188.283 22.6154C188.288 22.6201 188.291 22.6265 188.291 22.6333L188.314 23.3836C188.314 23.3882 188.315 23.3927 188.318 23.3962C188.321 23.3998 188.325 23.4022 188.33 23.4032C188.334 23.4041 188.339 23.4035 188.343 23.4014C188.347 23.3993 188.35 23.3959 188.352 23.3917Z" fill="white"/>
</svg>
