<svg width="81" height="82" viewBox="0 0 81 82" fill="none" xmlns="http://www.w3.org/2000/svg">
<g filter="url(#filter0_b_880_6877)">
<path d="M40.4268 81.9711C62.5654 81.9711 80.8851 63.4054 80.8851 41.0012C80.8851 18.5654 62.5346 0 40.396 0C18.2884 0 0 18.5654 0 41.0012C0 63.4054 18.3194 81.9711 40.4268 81.9711Z" fill="white" fill-opacity="0.16"/>
</g>
<g clip-path="url(#clip0_880_6877)">
<path d="M29.2694 45.367C26.735 47.5684 25.3103 50.3765 25.3103 52.8839C25.3103 53.6159 25.4985 54.2997 25.8601 54.8819H13.5877C11.7582 54.8819 11 54.1598 11 52.7637C11 48.4428 15.3569 43.3277 22.3375 43.3277C25.0966 43.3277 27.4456 44.1267 29.2694 45.367ZM27.7175 34.9991C27.7175 38.357 25.2622 40.9446 22.3496 40.9446C19.4369 40.9446 16.9817 38.357 16.9817 35.0232C16.9817 31.7615 19.461 29.21 22.3496 29.21C25.2381 29.21 27.7175 31.7134 27.7175 34.9991Z" fill="white" fill-opacity="0.5"/>
<path d="M69.4448 52.7637C69.4448 54.1598 68.6865 54.8819 66.8692 54.8819H54.6422C55.0052 54.2997 55.1947 53.6159 55.1947 52.8839C55.1947 50.3679 53.7601 47.5491 51.209 45.3436C53.0283 44.1168 55.3654 43.3277 58.1073 43.3277C65.0879 43.3277 69.4448 48.4428 69.4448 52.7637ZM63.4872 34.9991C63.4872 38.357 61.044 40.9446 58.1314 40.9446C55.2187 40.9446 52.7515 38.357 52.7515 35.0232C52.7515 31.7615 55.2308 29.21 58.1314 29.21C61.0199 29.21 63.4872 31.7134 63.4872 34.9991Z" fill="white" fill-opacity="0.5"/>
<path d="M40.2581 40.5956C43.616 40.5956 46.4324 37.6228 46.4324 33.7594C46.4324 29.9922 43.592 27.1157 40.2581 27.1157C36.9363 27.1157 34.0959 30.0404 34.0959 33.7834C34.0959 37.6228 36.9122 40.5956 40.2581 40.5956ZM29.7631 54.8818H50.7411C52.3057 54.8818 53.2686 54.1236 53.2686 52.8839C53.2686 48.8881 48.2738 43.3758 40.2461 43.3758C32.2184 43.3758 27.2236 48.8881 27.2236 52.8839C27.2236 54.1236 28.1864 54.8818 29.7631 54.8818Z" fill="white"/>
</g>
<defs>
<filter id="filter0_b_880_6877" x="-24" y="-24" width="128.885" height="129.971" filterUnits="userSpaceOnUse" color-interpolation-filters="sRGB">
<feFlood flood-opacity="0" result="BackgroundImageFix"/>
<feGaussianBlur in="BackgroundImageFix" stdDeviation="12"/>
<feComposite in2="SourceAlpha" operator="in" result="effect1_backgroundBlur_880_6877"/>
<feBlend mode="normal" in="SourceGraphic" in2="effect1_backgroundBlur_880_6877" result="shape"/>
</filter>
<clipPath id="clip0_880_6877">
<rect width="58.8901" height="31.81" fill="white" transform="translate(11 24.9854)"/>
</clipPath>
</defs>
</svg>
