<svg width="23" height="20" viewBox="0 0 23 20" fill="none" xmlns="http://www.w3.org/2000/svg">
<path d="M20.6192 5.34391C20.6192 5.57178 20.6192 5.75406 20.6192 5.98193C20.6192 12.3166 15.9023 19.5627 7.23242 19.5627C4.53711 19.5627 2.0664 18.788 0 17.4207C0.359375 17.4663 0.71875 17.5118 1.12305 17.5118C3.32422 17.5118 5.34571 16.7371 6.96289 15.4611C4.89649 15.4155 3.14453 14.0483 2.56054 12.1343C2.875 12.1798 3.14453 12.2254 3.45899 12.2254C3.86328 12.2254 4.3125 12.1343 4.67188 12.0431C2.51562 11.5874 0.898438 9.67335 0.898438 7.34913V7.30355C1.52734 7.66813 2.29101 7.85043 3.0547 7.896C1.75196 7.03011 0.94336 5.57178 0.94336 3.93115C0.94336 3.0197 1.16797 2.19938 1.57227 1.51579C3.90821 4.38688 7.41211 6.30095 11.3203 6.52881C11.2305 6.16423 11.1855 5.79965 11.1855 5.43506C11.1855 2.79183 13.2969 0.649902 15.9023 0.649902C17.25 0.649902 18.4629 1.19678 19.3614 2.15381C20.3946 1.92594 21.4278 1.51579 22.3261 0.968913C21.9668 2.10824 21.2481 3.0197 20.2597 3.61215C21.203 3.521 22.1465 3.24756 22.9552 2.88298C22.3261 3.84001 21.5177 4.66031 20.6192 5.34391Z" fill="white"/>
</svg>
