<svg width="44" height="70" viewBox="0 0 44 70" fill="none" xmlns="http://www.w3.org/2000/svg">
<path id="Vector" d="M0 18.293C0 8.0385 9.65659 0 21.9301 0C34.2509 0 43.9553 8.25573 43.9553 18.5103C43.9553 29.8511 35.4877 32.632 34.2981 53.0108C34.2031 54.0537 33.4422 54.7487 32.2527 54.7487H11.6548C10.513 54.7487 9.75207 54.0537 9.65659 53.0108C8.37245 32.632 0 29.634 0 18.293ZM12.1779 62.092C10.8939 62.092 9.79932 61.1363 9.79932 59.963C9.79932 58.7897 10.8939 57.7903 12.1779 57.7903H31.7773C33.0613 57.7903 34.1554 58.7897 34.1554 59.963C34.1554 61.1363 33.0613 62.092 31.7773 62.092H12.1779ZM21.9774 70C17.4106 70 13.8907 68.0449 13.6052 65.1337H30.3977C30.0168 68.0449 26.4969 70 21.9774 70Z" fill="white"/>
</svg>
